<svg xmlns="http://www.w3.org/2000/svg" viewBox="0 0 65.23 39.03"><defs><style>.cls-1{fill:#c00;}.cls-2{fill:#f90;}.cls-3{fill:#006;}.cls-4{fill:#fff;}</style></defs><title>mastercard</title><g id="Ebene_2" data-name="Ebene 2"><g id="Ebene_1-2" data-name="Ebene 1"><g id="Icons:-Credit-card"><g id="MasterCard-card-light"><g id="Credit-Card_MasterCard_MasterCard-light" data-name="Credit-Card/MasterCard/MasterCard-light"><path id="Fill-333" class="cls-1" d="M39,19.52A19.52,19.52,0,1,1,19.52,0,19.51,19.51,0,0,1,39,19.52"/><path id="Fill-334" class="cls-2" d="M45.72,0a19.45,19.45,0,0,0-13.1,5.05,19.89,19.89,0,0,0-2,2.07h3.94a20,20,0,0,1,1.49,2.07H29.16A19.61,19.61,0,0,0,28,11.25H37.2A19.44,19.44,0,0,1,38,13.32H27.21a19.43,19.43,0,0,0-.57,2.07h12A19.65,19.65,0,0,1,38,25.71H27.21A19.72,19.72,0,0,0,28,27.78H37.2a19.55,19.55,0,0,1-1.13,2.07H29.16a19.68,19.68,0,0,0,1.49,2.06h3.94a19.5,19.5,0,0,1-2,2.07A19.52,19.52,0,1,0,45.72,0"/><path id="Fill-336" class="cls-3" d="M15,21.65a3.64,3.64,0,0,0-.47,0c-1.2,0-1.81.41-1.81,1.23a.74.74,0,0,0,.76.82c.86,0,1.49-.82,1.52-2Zm1.54,3.59H14.74l0-.83a2.66,2.66,0,0,1-2.22,1,2,2,0,0,1-1.94-2.2c0-2,1.37-3.1,3.72-3.1a7.25,7.25,0,0,1,.86.06,2,2,0,0,0,.08-.52c0-.53-.37-.73-1.36-.73a7.06,7.06,0,0,0-2.24.36L12,17.44A8.42,8.42,0,0,1,14.52,17c1.82,0,2.78.82,2.78,2.36a10.32,10.32,0,0,1-.17,1.6c-.18,1.17-.58,3.67-.63,4.27Z"/><path id="Fill-337" class="cls-3" d="M9.74,25.24H7.62l1.21-7.61L6.13,25.24H4.68L4.5,17.67,3.23,25.24h-2l1.66-9.9h3l.18,5.54L8,15.34h3.39l-1.64,9.9"/><path id="Fill-338" class="cls-3" d="M48.33,21.65a3.63,3.63,0,0,0-.47,0c-1.2,0-1.81.41-1.81,1.23a.74.74,0,0,0,.76.82c.86,0,1.48-.82,1.52-2Zm1.54,3.59H48.12l0-.83a2.66,2.66,0,0,1-2.22,1A2,2,0,0,1,44,23.18c0-2,1.37-3.1,3.72-3.1a7.25,7.25,0,0,1,.86.06,2,2,0,0,0,.08-.52c0-.53-.37-.73-1.36-.73a7.08,7.08,0,0,0-2.24.36l.3-1.81A8.42,8.42,0,0,1,47.9,17c1.82,0,2.78.82,2.78,2.36a10.24,10.24,0,0,1-.17,1.6c-.18,1.17-.58,3.67-.63,4.27Z"/><path id="Fill-339" class="cls-3" d="M25.91,25.12a4.84,4.84,0,0,1-1.52.26,1.55,1.55,0,0,1-1.67-1.77A18.58,18.58,0,0,1,23,21.46c.12-.75.92-5.49.92-5.49H26l-.25,1.22h1.27l-.29,1.93H25.5c-.24,1.53-.59,3.44-.6,3.69,0,.42.22.6.73.6a1.72,1.72,0,0,0,.57-.08l-.28,1.78"/><path id="Fill-340" class="cls-3" d="M32.37,25.05a7.16,7.16,0,0,1-2.16.33c-2.36,0-3.59-1.23-3.59-3.59C26.62,19,28.19,17,30.31,17a2.69,2.69,0,0,1,2.85,2.91,8.61,8.61,0,0,1-.26,2H28.7c-.14,1.17.61,1.65,1.83,1.65A5,5,0,0,0,32.72,23l-.35,2Zm-1.18-4.77c0-.17.22-1.44-1-1.44-.67,0-1.15.51-1.34,1.44Z"/><path id="Fill-341" class="cls-3" d="M17.77,19.73A2.35,2.35,0,0,0,19.38,22c.86.4,1,.52,1,.89s-.38.73-1.22.73a6,6,0,0,1-1.9-.32L17,25.14a9.87,9.87,0,0,0,2.2.24c2.24,0,3.27-.85,3.27-2.69a2.2,2.2,0,0,0-1.49-2.24c-.89-.41-1-.5-1-.87s.35-.66,1-.66a11.7,11.7,0,0,1,1.52.12l.3-1.87A14.3,14.3,0,0,0,21,17c-2.37,0-3.19,1.24-3.18,2.73"/><path id="Fill-342" class="cls-3" d="M42.68,17.22a4,4,0,0,1,1.89.53l.35-2.15a6.22,6.22,0,0,0-2.33-.84,4.22,4.22,0,0,0-3.46,1.86c-1.23-.41-1.74.42-2.36,1.24l-.55.13a4.11,4.11,0,0,0,.07-.81H34.34c-.27,2.49-.74,5-1.1,7.51l-.1.54h2.12c.35-2.3.55-3.77.66-4.77l.8-.44c.12-.44.49-.59,1.24-.58a9,9,0,0,0-.15,1.65c0,2.63,1.42,4.27,3.7,4.27a6.61,6.61,0,0,0,1.87-.29l.37-2.26a4.12,4.12,0,0,1-1.8.51c-1.23,0-2-.91-2-2.41,0-2.18,1.11-3.71,2.69-3.71"/><path id="Fill-343" class="cls-3" d="M60.61,15.34l-.47,2.86a2.65,2.65,0,0,0-2-1.31,3.28,3.28,0,0,0-2.68,2,17.43,17.43,0,0,1-1.8-.5h0a11.92,11.92,0,0,0,.09-1.21H51.78c-.26,2.49-.74,5-1.1,7.51l-.1.54H52.7c.29-1.86.5-3.4.67-4.63.72-.66,1.09-1.22,1.82-1.19A6.9,6.9,0,0,0,54.67,22c0,2,1,3.34,2.56,3.34a2.5,2.5,0,0,0,2-.89l-.1.75h2l1.61-9.9Zm-2.65,8c-.72,0-1.09-.53-1.09-1.59,0-1.58.68-2.7,1.64-2.7.73,0,1.12.55,1.12,1.58,0,1.6-.69,2.71-1.68,2.71Z"/><path id="Fill-344" class="cls-4" d="M10.35,24.65H8.23L9.45,17,6.74,24.65H5.29l-.18-7.56L3.84,24.65h-2l1.66-9.9h3l.09,6.13L8.7,14.75H12l-1.64,9.9"/><path id="Fill-345" class="cls-4" d="M15.57,21.07a3.52,3.52,0,0,0-.47,0c-1.2,0-1.81.41-1.81,1.22a.74.74,0,0,0,.76.82c.86,0,1.48-.82,1.52-2Zm1.54,3.59H15.35l0-.83a2.66,2.66,0,0,1-2.22,1,2,2,0,0,1-1.94-2.2c0-2,1.37-3.1,3.72-3.1a7.08,7.08,0,0,1,.86.06A2,2,0,0,0,15.9,19c0-.53-.37-.73-1.36-.73a7,7,0,0,0-2.24.36l.29-1.81a8.45,8.45,0,0,1,2.54-.43c1.82,0,2.78.82,2.78,2.36a10.31,10.31,0,0,1-.17,1.6c-.18,1.16-.58,3.67-.63,4.27Z"/><path id="Fill-346" class="cls-4" d="M45.53,15l-.35,2.15a4,4,0,0,0-1.89-.53c-1.58,0-2.69,1.53-2.69,3.71,0,1.5.75,2.41,2,2.41a4.1,4.1,0,0,0,1.8-.51L44,24.5a6.61,6.61,0,0,1-1.87.29c-2.28,0-3.7-1.64-3.7-4.27,0-3.54,2-6,4.77-6a7.33,7.33,0,0,1,2.33.51"/><path id="Fill-347" class="cls-4" d="M48.94,21.07a3.5,3.5,0,0,0-.47,0c-1.2,0-1.81.41-1.81,1.22a.74.74,0,0,0,.76.82c.86,0,1.49-.82,1.52-2Zm1.54,3.59H48.73l0-.83a2.66,2.66,0,0,1-2.22,1,2,2,0,0,1-1.94-2.2c0-2,1.37-3.1,3.72-3.1a7.06,7.06,0,0,1,.86.06,2,2,0,0,0,.08-.52c0-.53-.37-.73-1.36-.73a7,7,0,0,0-2.24.36L46,16.85a8.44,8.44,0,0,1,2.54-.43c1.82,0,2.78.82,2.78,2.36a10.18,10.18,0,0,1-.17,1.6c-.18,1.16-.58,3.67-.63,4.27Z"/><path id="Fill-348" class="cls-4" d="M26.52,24.53a4.84,4.84,0,0,1-1.52.26A1.55,1.55,0,0,1,23.33,23a18.63,18.63,0,0,1,.29-2.15c.12-.75.92-5.49.92-5.49h2.11L26.4,16.6h1.08l-.29,1.93H26.11c-.24,1.53-.59,3.44-.6,3.69,0,.42.22.6.73.6a1.7,1.7,0,0,0,.57-.08l-.28,1.78"/><path id="Fill-349" class="cls-4" d="M33,24.47a7.21,7.21,0,0,1-2.16.33c-2.36,0-3.59-1.23-3.59-3.59,0-2.75,1.56-4.78,3.68-4.78a2.69,2.69,0,0,1,2.85,2.91,8.72,8.72,0,0,1-.26,2H29.31c-.14,1.17.61,1.66,1.83,1.66a5,5,0,0,0,2.19-.51l-.35,2ZM31.8,19.69c0-.17.22-1.44-1-1.44-.67,0-1.15.51-1.35,1.44Z"/><path id="Fill-350" class="cls-4" d="M18.38,19.15A2.35,2.35,0,0,0,20,21.39c.86.4,1,.52,1,.89s-.38.73-1.22.73a6,6,0,0,1-1.9-.32l-.29,1.86a9.81,9.81,0,0,0,2.2.24c2.24,0,3.27-.85,3.27-2.69a2.2,2.2,0,0,0-1.49-2.24c-.89-.41-1-.5-1-.88s.35-.66,1-.66a11.78,11.78,0,0,1,1.52.12l.3-1.87a14.42,14.42,0,0,0-1.86-.16c-2.37,0-3.19,1.24-3.18,2.73"/><path id="Fill-351" class="cls-4" d="M61.7,24.65h-2l.1-.75a2.5,2.5,0,0,1-2,.89c-1.54,0-2.56-1.33-2.56-3.34,0-2.68,1.58-4.93,3.45-4.93a2.39,2.39,0,0,1,2,1.1l.47-2.86h2.09l-1.61,9.9Zm-3.13-1.86c1,0,1.68-1.12,1.68-2.71,0-1-.39-1.58-1.12-1.58-1,0-1.64,1.12-1.64,2.7,0,1.05.37,1.59,1.09,1.59Z"/><path id="Fill-352" class="cls-4" d="M52.39,16.6c-.26,2.49-.74,5-1.1,7.51l-.1.54h2.12c.76-4.92.94-5.88,2.13-5.76a7.9,7.9,0,0,1,.8-2.33c-.89-.19-1.38.32-2,1.27a7.33,7.33,0,0,0,.13-1.22H52.39"/><path id="Fill-353" class="cls-4" d="M35,16.6c-.27,2.49-.74,5-1.11,7.51l-.1.54h2.12c.76-4.92.94-5.88,2.13-5.76a8,8,0,0,1,.81-2.33c-.89-.19-1.38.32-2,1.27a7.3,7.3,0,0,0,.13-1.22H35"/></g></g></g></g></g></svg>