<svg xmlns="http://www.w3.org/2000/svg" viewBox="0 0 71.93 25.9"><defs><style>.cls-1{fill:#0b4a8e;}.cls-2{fill:#f6bc25;}</style></defs><title>Element 1</title><g id="Ebene_2" data-name="Ebene 2"><g id="Ebene_1-2" data-name="Ebene 1"><g id="Icons:-Payment"><g id="Sepa"><g id="Payment_Sepa_Sepa" data-name="Payment/Sepa/Sepa"><path id="Fill-1" class="cls-1" d="M0,23.56l.74-.07A.91.91,0,0,0,1,24a.82.82,0,0,0,.55.17.84.84,0,0,0,.55-.16.46.46,0,0,0,.19-.36.35.35,0,0,0-.08-.23A.62.62,0,0,0,2,23.3l-.61-.16a2,2,0,0,1-.85-.37A1,1,0,0,1,.16,22a1,1,0,0,1,.16-.54,1,1,0,0,1,.47-.38A1.88,1.88,0,0,1,1.53,21a1.58,1.58,0,0,1,1.06.31,1.1,1.1,0,0,1,.38.83l-.76,0A.65.65,0,0,0,2,21.72a.76.76,0,0,0-.48-.13.86.86,0,0,0-.52.14A.27.27,0,0,0,.88,22a.29.29,0,0,0,.11.23,2,2,0,0,0,.7.25,3.64,3.64,0,0,1,.82.27,1.06,1.06,0,0,1,.41.38,1.13,1.13,0,0,1,.15.6,1.11,1.11,0,0,1-.18.61,1.08,1.08,0,0,1-.51.42,2.12,2.12,0,0,1-.82.14,1.62,1.62,0,0,1-1.09-.33,1.45,1.45,0,0,1-.46-1"/><path id="Fill-2" class="cls-1" d="M3.86,22.07h.72v2.72H3.86Zm0-1h.72v.66H3.86Z"/><path id="Fill-3" class="cls-1" d="M8,24.79H7.23V23.4a2.16,2.16,0,0,0,0-.57.4.4,0,0,0-.15-.2.43.43,0,0,0-.25-.07.57.57,0,0,0-.33.1.52.52,0,0,0-.2.27,2.36,2.36,0,0,0-.05.63v1.23H5.48V22.07h.67v.4a1.11,1.11,0,0,1,1.33-.38.73.73,0,0,1,.3.22.79.79,0,0,1,.14.3,2.25,2.25,0,0,1,0,.48v1.69"/><path id="Fill-4" class="cls-1" d="M9.42,23.37a1,1,0,0,0,.17.64.51.51,0,0,0,.41.2.56.56,0,0,0,.44-.21.91.91,0,0,0,.18-.61,1,1,0,0,0-.17-.63.55.55,0,0,0-.44-.21.53.53,0,0,0-.42.2,1,1,0,0,0-.17.62ZM8.77,25l.82.09a.31.31,0,0,0,.1.21.52.52,0,0,0,.32.08.85.85,0,0,0,.42-.08.35.35,0,0,0,.14-.18,1.1,1.1,0,0,0,0-.33v-.4a1,1,0,0,1-.81.44,1,1,0,0,1-.87-.46,1.58,1.58,0,0,1-.25-.91,1.5,1.5,0,0,1,.33-1A1.06,1.06,0,0,1,9.83,22a1,1,0,0,1,.83.44v-.38h.67v2.45a2.43,2.43,0,0,1-.08.72.89.89,0,0,1-.22.37,1,1,0,0,1-.38.21,2,2,0,0,1-.61.08,1.56,1.56,0,0,1-1-.24.75.75,0,0,1-.29-.61s0-.05,0-.09Z"/><path id="Fill-5" class="cls-1" d="M12.2,21h.72v3.76H12.2Z"/><path id="Fill-6" class="cls-1" d="M15.44,23.2a.71.71,0,0,0-.16-.48.5.5,0,0,0-.38-.17.5.5,0,0,0-.39.17.68.68,0,0,0-.15.47Zm0,.73.72.12a1.18,1.18,0,0,1-.44.6,1.29,1.29,0,0,1-.75.21,1.22,1.22,0,0,1-1.05-.47,1.56,1.56,0,0,1-.27-.94A1.51,1.51,0,0,1,14,22.39a1.17,1.17,0,0,1,.9-.38,1.21,1.21,0,0,1,1,.4,1.79,1.79,0,0,1,.34,1.24H14.34a.73.73,0,0,0,.18.5.55.55,0,0,0,.42.18.45.45,0,0,0,.29-.09.57.57,0,0,0,.18-.3Z"/><path id="Fill-7" class="cls-1" d="M18.52,24.79V21H21.3v.63h-2v.83h1.88v.63H19.28v1h2.09v.63H18.52"/><path id="Fill-8" class="cls-1" d="M24,24.79v-.41a1.11,1.11,0,0,1-.9.47,1,1,0,0,1-.49-.12.71.71,0,0,1-.32-.34,1.51,1.51,0,0,1-.1-.6V22.07h.72v1.25a3.45,3.45,0,0,0,0,.7.38.38,0,0,0,.14.21.45.45,0,0,0,.27.08.56.56,0,0,0,.33-.1.51.51,0,0,0,.2-.25,2.92,2.92,0,0,0,.05-.73V22.07h.72v2.72H24"/><path id="Fill-9" class="cls-1" d="M26.21,24.79h-.72V22.07h.67v.39a1.21,1.21,0,0,1,.31-.36.56.56,0,0,1,.31-.09.91.91,0,0,1,.47.14l-.22.63a.64.64,0,0,0-.34-.12.4.4,0,0,0-.26.08.57.57,0,0,0-.17.3,4.27,4.27,0,0,0-.06.91v.84"/><path id="Fill-10" class="cls-1" d="M28.28,23.43a.91.91,0,0,0,.19.62.63.63,0,0,0,.95,0,.92.92,0,0,0,.19-.63.9.9,0,0,0-.19-.62.63.63,0,0,0-.95,0,.91.91,0,0,0-.19.62Zm-.74,0a1.48,1.48,0,0,1,.18-.7,1.22,1.22,0,0,1,.5-.51,1.48,1.48,0,0,1,.72-.18,1.36,1.36,0,0,1,1,.4,1.39,1.39,0,0,1,.39,1,1.41,1.41,0,0,1-.4,1,1.34,1.34,0,0,1-1,.41,1.58,1.58,0,0,1-.71-.17,1.16,1.16,0,0,1-.52-.5,1.66,1.66,0,0,1-.18-.8Z"/><path id="Fill-11" class="cls-1" d="M33.47,21.67v1.07h.41a1.94,1.94,0,0,0,.6-.06.5.5,0,0,0,.24-.19.51.51,0,0,0,.09-.29.49.49,0,0,0-.12-.34.52.52,0,0,0-.3-.17,3.61,3.61,0,0,0-.54,0Zm-.76,3.12V21h1.22a4.41,4.41,0,0,1,.9.06,1,1,0,0,1,.54.37,1.17,1.17,0,0,1,.22.73,1.23,1.23,0,0,1-.13.58,1,1,0,0,1-.32.37,1.09,1.09,0,0,1-.39.18,4.3,4.3,0,0,1-.79.05h-.49v1.42Z"/><path id="Fill-12" class="cls-1" d="M37.85,23.49l-.44.11a1.3,1.3,0,0,0-.39.13.3.3,0,0,0-.14.25.36.36,0,0,0,.11.26.39.39,0,0,0,.29.11.62.62,0,0,0,.37-.13.45.45,0,0,0,.17-.24,1.45,1.45,0,0,0,0-.35v-.14Zm-1-.59-.65-.12a1,1,0,0,1,.38-.59,1.39,1.39,0,0,1,.8-.19,1.73,1.73,0,0,1,.72.11.72.72,0,0,1,.33.29,1.49,1.49,0,0,1,.1.65v.84a3,3,0,0,0,0,.53,1.55,1.55,0,0,0,.13.37H38s0-.12-.07-.21l0-.08a1.3,1.3,0,0,1-.39.27,1.13,1.13,0,0,1-.45.09.93.93,0,0,1-.66-.23.76.76,0,0,1-.24-.58.78.78,0,0,1,.11-.41.72.72,0,0,1,.31-.28,2.43,2.43,0,0,1,.57-.17,3.91,3.91,0,0,0,.7-.18v-.07a.38.38,0,0,0-.1-.3.61.61,0,0,0-.39-.09.52.52,0,0,0-.3.08.53.53,0,0,0-.17.27Z"/><path id="Fill-13" class="cls-1" d="M39.08,22.07h.77L40.5,24l.64-1.93h.75l-1.13,3.1a2,2,0,0,1-.18.36.79.79,0,0,1-.2.2.86.86,0,0,1-.27.12,1.42,1.42,0,0,1-.37,0,1.91,1.91,0,0,1-.41,0l-.07-.56a1.58,1.58,0,0,0,.31,0,.45.45,0,0,0,.37-.15,1,1,0,0,0,.19-.38l-1-2.73"/><path id="Fill-14" class="cls-1" d="M42.45,22.07h.66v.37A1.07,1.07,0,0,1,44,22a.92.92,0,0,1,.45.11.83.83,0,0,1,.32.33,1.27,1.27,0,0,1,.39-.33,1,1,0,0,1,.44-.11,1,1,0,0,1,.51.12.74.74,0,0,1,.31.36,1.56,1.56,0,0,1,.07.56v1.74h-.72V23.23a1.16,1.16,0,0,0-.07-.52.34.34,0,0,0-.31-.15.49.49,0,0,0-.28.09.51.51,0,0,0-.19.27,2,2,0,0,0-.06.56v1.31h-.72V23.3a2.07,2.07,0,0,0,0-.51.33.33,0,0,0-.12-.17.38.38,0,0,0-.22-.06.52.52,0,0,0-.3.09.49.49,0,0,0-.19.26,1.93,1.93,0,0,0-.06.56v1.32h-.72V22.07"/><path id="Fill-15" class="cls-1" d="M48.94,23.2a.71.71,0,0,0-.16-.48.5.5,0,0,0-.38-.17.5.5,0,0,0-.39.17.68.68,0,0,0-.15.47Zm0,.73.72.12a1.18,1.18,0,0,1-.44.6,1.29,1.29,0,0,1-.75.21,1.22,1.22,0,0,1-1.05-.47,1.56,1.56,0,0,1-.27-.94,1.51,1.51,0,0,1,.35-1.06,1.17,1.17,0,0,1,.9-.38,1.21,1.21,0,0,1,1,.4,1.79,1.79,0,0,1,.34,1.24H47.85a.73.73,0,0,0,.18.5.55.55,0,0,0,.42.18.45.45,0,0,0,.29-.09.56.56,0,0,0,.18-.3Z"/><path id="Fill-16" class="cls-1" d="M52.87,24.79h-.72V23.4a2.18,2.18,0,0,0,0-.57.4.4,0,0,0-.15-.2.43.43,0,0,0-.25-.07.57.57,0,0,0-.33.1.52.52,0,0,0-.2.27,2.37,2.37,0,0,0-.05.63v1.23h-.72V22.07h.67v.4a1.11,1.11,0,0,1,1.33-.38.73.73,0,0,1,.3.22.79.79,0,0,1,.14.3,2.24,2.24,0,0,1,0,.48v1.69"/><path id="Fill-17" class="cls-1" d="M55,22.07v.57h-.49v1.1a2.78,2.78,0,0,0,0,.39.16.16,0,0,0,.06.09.2.2,0,0,0,.12,0,.9.9,0,0,0,.28-.07l.06.56a1.42,1.42,0,0,1-.57.11.89.89,0,0,1-.35-.07.51.51,0,0,1-.23-.17.67.67,0,0,1-.1-.28,3.5,3.5,0,0,1,0-.51V22.64h-.33v-.57h.33v-.54l.72-.42v1H55"/><path id="Fill-18" class="cls-1" d="M55.41,24l.72-.11a.53.53,0,0,0,.19.32.63.63,0,0,0,.39.11.71.71,0,0,0,.42-.1.23.23,0,0,0,.09-.19.19.19,0,0,0-.05-.14.58.58,0,0,0-.24-.1,3.92,3.92,0,0,1-1.11-.35.7.7,0,0,1-.32-.61.76.76,0,0,1,.28-.6,1.31,1.31,0,0,1,.87-.24,1.53,1.53,0,0,1,.83.18.93.93,0,0,1,.38.53l-.68.13A.42.42,0,0,0,57,22.6a.62.62,0,0,0-.35-.08.79.79,0,0,0-.41.08.17.17,0,0,0-.08.15.16.16,0,0,0,.07.13,2.72,2.72,0,0,0,.68.2,2,2,0,0,1,.81.32.67.67,0,0,1,.23.54.83.83,0,0,1-.31.65,1.38,1.38,0,0,1-.92.27,1.52,1.52,0,0,1-.88-.22,1,1,0,0,1-.42-.61"/><path id="Fill-19" class="cls-1" d="M62.35,23.31l-.52-1.39-.51,1.39Zm1.39,1.48h-.82l-.32-.85H61.09l-.31.85H60L61.43,21h.8l1.52,3.76Z"/><path id="Fill-20" class="cls-1" d="M65,24.79h-.72V22.07h.67v.39a1.2,1.2,0,0,1,.31-.36.56.56,0,0,1,.31-.09.91.91,0,0,1,.47.14l-.22.63a.64.64,0,0,0-.34-.12.4.4,0,0,0-.26.08A.57.57,0,0,0,65,23a4.25,4.25,0,0,0-.06.91v.84"/><path id="Fill-21" class="cls-1" d="M68.12,23.2a.71.71,0,0,0-.16-.48.52.52,0,0,0-.77,0,.68.68,0,0,0-.15.47Zm0,.73.72.12a1.18,1.18,0,0,1-.44.6,1.29,1.29,0,0,1-.75.21,1.22,1.22,0,0,1-1.05-.47,1.56,1.56,0,0,1-.27-.94,1.51,1.51,0,0,1,.35-1.06,1.17,1.17,0,0,1,.9-.38,1.21,1.21,0,0,1,1,.4,1.79,1.79,0,0,1,.34,1.24H67a.73.73,0,0,0,.18.5.55.55,0,0,0,.42.18.45.45,0,0,0,.29-.09.57.57,0,0,0,.18-.3Z"/><path id="Fill-22" class="cls-1" d="M71.07,23.49l-.44.11a1.31,1.31,0,0,0-.39.13.3.3,0,0,0-.14.25.36.36,0,0,0,.11.26.39.39,0,0,0,.29.11.62.62,0,0,0,.37-.13A.45.45,0,0,0,71,24a1.45,1.45,0,0,0,0-.35v-.14Zm-1-.59-.65-.12a1,1,0,0,1,.38-.59,1.39,1.39,0,0,1,.8-.19,1.73,1.73,0,0,1,.72.11.72.72,0,0,1,.33.29,1.49,1.49,0,0,1,.1.65v.84a3,3,0,0,0,0,.53,1.56,1.56,0,0,0,.13.37h-.71s0-.12-.07-.21l0-.08a1.3,1.3,0,0,1-.39.27,1.13,1.13,0,0,1-.45.09.93.93,0,0,1-.66-.23.76.76,0,0,1-.24-.58.78.78,0,0,1,.11-.41.72.72,0,0,1,.31-.28,2.43,2.43,0,0,1,.57-.17,3.91,3.91,0,0,0,.7-.18v-.07a.38.38,0,0,0-.1-.3.61.61,0,0,0-.39-.09.52.52,0,0,0-.3.08.53.53,0,0,0-.17.27Z"/><path id="Fill-23" class="cls-1" d="M16,6.27H11.06a3.17,3.17,0,0,0-.28-1.63Q10.33,4,8.35,4a6,6,0,0,0-2.55.35q-.62.35-.62,1.54a1.54,1.54,0,0,0,.55,1.41,2.3,2.3,0,0,0,1,.28l1,.07q3.19.21,4,.3a6.08,6.08,0,0,1,3.66,1.34,3.56,3.56,0,0,1,1.06,2.22,15.51,15.51,0,0,1,.1,1.85,9.8,9.8,0,0,1-.45,3.48q-.82,2-3.69,2.56a21.7,21.7,0,0,1-3.68.23A22.66,22.66,0,0,1,3,19.17,3.76,3.76,0,0,1,.35,16.71,11.66,11.66,0,0,1,0,13.28H4.92c0,.18,0,.31,0,.41q0,1.28.73,1.65a2.88,2.88,0,0,0,1.23.27H8.69a6.54,6.54,0,0,0,1.77-.14,1.44,1.44,0,0,0,.89-.86,3.28,3.28,0,0,0,.11-.95q0-1.3-.95-1.58a29.49,29.49,0,0,0-3.29-.31Q4.87,11.6,4,11.44A4.37,4.37,0,0,1,.73,9.58,7.33,7.33,0,0,1,0,5.95,9.4,9.4,0,0,1,.41,3,3.25,3.25,0,0,1,1.64,1.29a6.24,6.24,0,0,1,3.18-1Q6.43.11,8.4.1a19.12,19.12,0,0,1,4.41.35Q16,1.32,16,5.3c0,.22,0,.54,0,1"/><path id="Fill-24" class="cls-1" d="M42.9,10h3.3a5.89,5.89,0,0,0,1.91-.24,1.41,1.41,0,0,0,.63-1,8.69,8.69,0,0,0,.1-1.53,6.33,6.33,0,0,0-.2-1.85,1.58,1.58,0,0,0-1.37-1q-.21,0-1,0H42.9V10Zm-5.29,9.64V0h9.85a11,11,0,0,1,3.09.33,4.8,4.8,0,0,1,3.27,3.12,12.06,12.06,0,0,1,.43,3.73,13.88,13.88,0,0,1-.47,4.3,4.43,4.43,0,0,1-3.9,3q-.35.06-2.95.1l-.88,0H42.9v5.08Z"/><path id="Fill-25" class="cls-1" d="M64.5,12.43,62,3.91l-2.4,8.52Zm1.05,3.83H58.47l-1,3.4H52.05L58,0h8l6,19.66H66.55l-1-3.4Z"/><path id="Fill-26" class="cls-2" d="M30.31,2.77a7,7,0,0,1,5.41,2.58L36.86,2.9A10,10,0,0,0,20.78,6.26H18.56L17.24,9.07H20.1c0,.26,0,.52,0,.79a9.48,9.48,0,0,0,0,1H18.68l-1.31,2.82h3.48A9.92,9.92,0,0,0,30,19.55a10,10,0,0,0,5.57-1.68V14.42a7,7,0,0,1-11.07-.78h7.29l1.31-2.82H23.41a7.13,7.13,0,0,1-.08-1c0-.24,0-.47,0-.71H33.9l1.31-2.82H24.28a7,7,0,0,1,6-3.49"/></g></g></g></g></g></svg>