<svg xmlns="http://www.w3.org/2000/svg" viewBox="0 0 60.72 19.69"><defs><style>.cls-1{fill:#26337a;}.cls-2{fill:#ed982d;}</style></defs><title>visa</title><g id="Ebene_2" data-name="Ebene 2"><g id="Ebene_1-2" data-name="Ebene 1"><g id="Icons:-Credit-card"><g id="Visa-card-light"><g id="Credit-Card_Visa_Visa-card-light" data-name="Credit-Card/Visa/Visa-card-light"><path id="Fill-1" class="cls-1" d="M21.39,19.41,24.47.33h4.91L26.31,19.41H21.39"/><path id="Fill-2" class="cls-1" d="M44.13.8a12.15,12.15,0,0,0-4.4-.8c-4.86,0-8.28,2.59-8.31,6.29,0,2.74,2.44,4.27,4.3,5.18s2.56,1.53,2.55,2.37c0,1.28-1.53,1.86-2.94,1.86a9.84,9.84,0,0,1-4.63-1l-.63-.3-.69,4.27a14.83,14.83,0,0,0,5.48,1c5.16,0,8.52-2.56,8.56-6.52,0-2.17-1.29-3.82-4.13-5.18-1.72-.88-2.77-1.47-2.76-2.37S37.42,4,39.35,4A8.62,8.62,0,0,1,43,4.72l.44.22L44.13.8"/><path id="Fill-3" class="cls-1" d="M50.68,12.64c.41-1.1,2-5.33,2-5.33s.41-1.1.65-1.82l.33,1.65s.94,4.55,1.14,5.51ZM56.74.35h-3.8a2.43,2.43,0,0,0-2.58,1.58l-7.3,17.48h5.16s.84-2.35,1-2.87h6.3c.15.67.6,2.86.6,2.86h4.56L56.74.35Z"/><path id="Fill-4" class="cls-1" d="M17.27.35l-4.81,13-.52-2.64a14.65,14.65,0,0,0-6.81-8l4.4,16.68h5.2l7.74-19H17.27"/><path id="Fill-5" class="cls-2" d="M8,.34H.07L0,.73c6.17,1.58,10.25,5.39,11.94,10L10.22,1.94A2.06,2.06,0,0,0,8,.34"/></g></g></g></g></g></svg>