<svg xmlns="http://www.w3.org/2000/svg" viewBox="0 0 19.75 19.55">
    <defs>
        <style>.cls-1{fill:#C90713;}</style>
    </defs>
    <title>Element 1</title>
    <g id="Ebene_2" data-name="Ebene 2">
        <g id="Ebene_1-2" data-name="Ebene 1">
            <path class="cls-1"
                  d="M12.31,8.88a12.41,12.41,0,0,1,4.47-5.15A1.77,1.77,0,0,1,19.61,5c.25,1.26.21,2.23-.63,2.78-1.44.94-4,1.25-6.67,1.06m-.81-.07c-3-.32-6-1.25-7.32-2.56a1.54,1.54,0,0,1,0-2C5.5,2.14,9,.33,11.89,0c.92-.1,1.51.13,1.55,1.16A15.76,15.76,0,0,1,11.5,8.81m-.36.64a12.74,12.74,0,0,1-8.33,6.32C.67,16.22,0,14.71,0,13.06c0-1.87.42-3.4,3.3-3.83a31.87,31.87,0,0,1,7.85.22m.83.13c2.3.38,4.3,1,5.09,1.73A1.13,1.13,0,0,1,17.15,13a9,9,0,0,1-5.37,2.85c-.83.09-1-.39-1.06-.94A12.07,12.07,0,0,1,12,9.58m-1.59,2.61C9.1,15.29,7.17,19,5.7,19.55l-.88-.92c2.08-.14,4.26-4.58,4.91-6l.66-.43"/>
        </g>
    </g>
</svg>