<?xml version="1.0" encoding="UTF-8"?>
<svg viewBox="0 0 640 480" xmlns="http://www.w3.org/2000/svg">
    <path d="m206.5 1.5c5.6667 0 10.667 1 15 3 4.3333 2 8.4167 4.75 12.25 8.25s8 8.6667 12.5 15.5 8.9167 11.75 13.25 14.75 9.0833 6.0833 14.25 9.25 9.0833 6.75 11.75 10.75 4.5833 7.8333 5.75 11.5 1.1667 9.6667 0 18-3.0833 15-5.75 20-6.9167 9.75-12.75 14.25-11.583 8.0833-17.25 10.75c-5.6667 2.6667-10.667 4.6667-15 6-4.3333 1.3333-13.917 2.75-28.75 4.25s-22.5 2.5-23 3l-0.75 0.75 0.5 1.25c0.33333 0.83333 11 1 32 0.5s35.5 0.41667 43.5 2.75 14.083 5.0833 18.25 8.25c4.1667 3.1667 7.4167 6.5833 9.75 10.25s4.1667 7.1667 5.5 10.5 1.5 9.8333 0.5 19.5-2.5833 16.25-4.75 19.75-3.4167 5.6667-3.75 6.5l-0.5 1.25-4.25 2.5c-2.8333 1.6667-6.25 5.1667-10.25 10.5s-7.3333 10.833-10 16.5c-2.6667 5.6667-4.9167 9.75-6.75 12.25s-3.5833 4.3333-5.25 5.5-3 2.5-4 4-4.1667 3.5833-9.5 6.25-11.5 3.5-18.5 2.5-12.917-3.25-17.75-6.75c-4.8333-3.5-8.9167-6.9167-12.25-10.25s-6.75-7.4167-10.25-12.25-5.8333-8.3333-7-10.5-2.5833-7.25-4.25-15.25-3.5-15-5.5-21l-3-9-1.5 6.5c-1 4.3333-1 13.833 0 28.5s3.1667 26.333 6.5 35c3.3333 8.6667 6.4167 14.75 9.25 18.25s6.1667 7 10 10.5 5.4167 7.0833 4.75 10.75c-0.66667 3.6667-1.0833 5.5833-1.25 5.75l-0.25 0.25-7-1.5c-4.6667-1-9.25-3.4167-13.75-7.25s-8.25-7.9167-11.25-12.25-5.8333-10-8.5-17-4.5-13.833-5.5-20.5c-1-6.6667-1.0833-18.75-0.25-36.25l1.25-26.25-3.25 0.75c-2.1667 0.5-3.75 2.25-4.75 5.25s-2.8333 12.833-5.5 29.5-5.3333 27.5-8 32.5-5.0833 8.5833-7.25 10.75-4.9167 4.4167-8.25 6.75-7 4.1667-11 5.5-10.333 1.5-19 0.5c-8.6667-1-15-2.6667-19-5s-8.5833-6.75-13.75-13.25-9-12.417-11.5-17.75l-3.75-8-1.5-1.25c-1-0.83333-2.9167-2.5-5.75-5s-6.4167-6.5833-10.75-12.25-6.8333-9.5-7.5-11.5c-0.66667-2-0.5-7.5 0.5-16.5s3.1667-16.167 6.5-21.5c3.3333-5.3333 7.4167-9.9167 12.25-13.75s9.9167-6.75 15.25-8.75 17.5-3.1667 36.5-3.5c19-0.33333 29.25-1.25 30.75-2.75l2.25-2.25-1.25-1.25c-0.83334-0.83333-11.25-2.0833-31.25-3.75s-34.5-4.5-43.5-8.5-15.25-7.75-18.75-11.25-5.9167-6.4167-7.25-8.75-2.1667-6.6667-2.5-13c-0.33333-6.3333 0.75-12.583 3.25-18.75 2.5-6.1667 7.9167-12.75 16.25-19.75s12.833-10.583 13.5-10.75l1-0.25 1.5-2.75c1-1.8333 3.9167-5.8333 8.75-12s8.5-10.667 11-13.5c2.5-2.8333 6.0833-6.0833 10.75-9.75s9.6667-6.3333 15-8 10-2.3333 14-2c4 0.33333 8.6667 1.6667 14 4s10.083 5.4167 14.25 9.25c4.1667 3.8333 7.25 7.9167 9.25 12.25s3.5 9.5 4.5 15.5 2.4167 17.333 4.25 34 3.0833 25 3.75 25h1l0.75-2.5c0.5-1.6667 1.4167-12.167 2.75-31.5s2.5-30.167 3.5-32.5c1-2.3333 3.4167-6.25 7.25-11.75s8.4167-10.25 13.75-14.25 10.333-7 15-9c4.6667-2 9.8333-3 15.5-3z"
          fill="#fff" fill-rule="evenodd" stroke="#fff" stroke-width="2"/>
</svg>
