<svg xmlns="http://www.w3.org/2000/svg" viewBox="0 0 82.05 106.77"><defs><style>.cls-1{fill:#a2780d;}.cls-2{fill:#efdc59;}</style></defs><title>Element 18</title><g id="Ebene_2" data-name="Ebene 2"><g id="Ebene_1-2" data-name="Ebene 1"><path class="cls-1" d="M69.86,20.44q-9.8-9.66-20-9.66-10.5,0-17.36,9Q27,26.88,24.64,38.5H64.26L60.48,47H23.66a17.89,17.89,0,0,0-.14,2.24v3.64a7,7,0,0,0,.14,1.4H58.52l-3.64,8.54H24.36Q29,93,51,93a25.68,25.68,0,0,0,11.9-2.66,48.54,48.54,0,0,0,9.66-7.42v14.7a39.05,39.05,0,0,1-21.56,6q-34.3,0-40.18-40.74H0l3.78-8.54h6.44a7,7,0,0,1-.14-1.4V49.14a14.75,14.75,0,0,1,.14-2.1H0L3.64,38.5H11.2q3.36-17.22,12.74-27.16Q34.44,0,51,0,63.7,0,76.3,8.82Z"/><path class="cls-2" d="M75.61,23.61Q65.81,14,55.59,14q-10.5,0-17.36,9-5.46,7.14-7.84,18.76H70l-3.78,8.54H29.41a17.89,17.89,0,0,0-.14,2.24v3.64a7,7,0,0,0,.14,1.4H64.27L60.63,66H30.11q4.62,30.1,26.6,30.1a25.68,25.68,0,0,0,11.9-2.66,48.54,48.54,0,0,0,9.66-7.42v14.7a39.05,39.05,0,0,1-21.56,6q-34.3,0-40.18-40.74H5.75l3.78-8.54H16a7,7,0,0,1-.14-1.4V52.31a14.75,14.75,0,0,1,.14-2.1H5.75l3.64-8.54H17q3.36-17.22,12.74-27.16,10.5-11.34,27-11.34,12.74,0,25.34,8.82Z"/></g></g></svg>