<svg xmlns="http://www.w3.org/2000/svg" xmlns:xlink="http://www.w3.org/1999/xlink" viewBox="0 0 249 190"><defs><style>.cls-1{opacity:0.1;}.cls-2{fill:url(#Unbenannter_Verlauf_2);}.cls-3{fill:#b3b3b3;}.cls-4{fill:url(#Unbenannter_Verlauf_59);}.cls-5{opacity:0.6;}.cls-6{fill:url(#Unbenannter_Verlauf_2-2);}.cls-7{fill:url(#Unbenannter_Verlauf_59-2);}</style><linearGradient id="Unbenannter_Verlauf_2" x1="8.48" y1="89.74" x2="111.52" y2="30.26" gradientUnits="userSpaceOnUse"><stop offset="0" stop-color="#fff"/><stop offset="1" stop-color="#ccc" stop-opacity="0.9"/></linearGradient><linearGradient id="Unbenannter_Verlauf_59" x1="16.83" y1="-20.39" x2="79.52" y2="-56.58" gradientTransform="matrix(1.01, 0.24, -0.33, 0.72, -11.63, 45.8)" gradientUnits="userSpaceOnUse"><stop offset="0" stop-color="#fff" stop-opacity="0.3"/><stop offset="1" stop-color="#f2f2f2" stop-opacity="0.9"/></linearGradient><linearGradient id="Unbenannter_Verlauf_2-2" x1="94.57" y1="137.24" x2="237.43" y2="54.76" xlink:href="#Unbenannter_Verlauf_2"/><linearGradient id="Unbenannter_Verlauf_59-2" x1="107.48" y1="28.94" x2="194.2" y2="-21.13" gradientTransform="matrix(1.01, 0.24, -0.33, 0.72, 0.95, 15.33)" xlink:href="#Unbenannter_Verlauf_59"/></defs><title>Element 6</title><g id="Ebene_2" data-name="Ebene 2"><g id="Ebene_1-2" data-name="Ebene 1"><g class="cls-1"><ellipse cx="185.25" cy="177.11" rx="63.75" ry="12.89"/></g><g class="cls-1"><ellipse cx="77" cy="119" rx="50" ry="12.89"/></g><path class="cls-2" d="M60,119.5A59.5,59.5,0,1,1,119.5,60,59.57,59.57,0,0,1,60,119.5Z"/><path class="cls-3" d="M60,1A59,59,0,1,1,1,60,59.07,59.07,0,0,1,60,1m0-1a60,60,0,1,0,60,60A60,60,0,0,0,60,0Z"/><ellipse class="cls-4" cx="49.51" cy="29.4" rx="38.59" ry="22.74" transform="translate(-6.68 16.83) rotate(-18.1)"/><g class="cls-5"><path d="M54.34,40.54a20.7,20.7,0,0,0-4.3,0,17.19,17.19,0,0,0-15.73,14h.19A12.6,12.6,0,0,1,45,50.32c7.46.53,12.34,6.29,11.75,14.53-.55,7.72-6.31,14.49-15.07,13.87-9-.64-14.43-8.07-13.65-19,.59-8.31,4-14.65,8.49-18.51A23,23,0,0,1,50.5,35.9a27.59,27.59,0,0,1,4.18,0ZM51,64.76c.43-6-2.75-9.91-8-10.29a9.42,9.42,0,0,0-8.55,4.61,4.87,4.87,0,0,0-.83,2.48c-.36,7,2.45,12.31,8.43,12.73C47,74.65,50.57,70.8,51,64.76Z"/><path d="M61.54,76a3.85,3.85,0,0,1,4.18-3.81A4.11,4.11,0,1,1,61.54,76Z"/></g><path class="cls-6" d="M166,178.5A82.5,82.5,0,1,1,248.5,96,82.59,82.59,0,0,1,166,178.5Z"/><path class="cls-3" d="M166,14A82,82,0,1,1,84,96a82.09,82.09,0,0,1,82-82m0-1a83,83,0,1,0,83,83,83,83,0,0,0-83-83Z"/><ellipse class="cls-7" cx="151.49" cy="53.68" rx="53.38" ry="31.46" transform="translate(-9.18 49.71) rotate(-18.1)"/><g class="cls-5"><path d="M148.23,123.44l.13-15.93-27.18-.21,0-5.22,26.39-37.14,8.55.07-.29,36.36,8.19.06,0,6.21-8.19-.06-.12,15.93Zm.17-22.14.15-19.53q0-4.59.34-9.18h-.27c-1.83,3.41-3.29,5.91-4.93,8.6L129.23,101v.18Z"/><path d="M174.55,118.07a33.07,33.07,0,0,0,6.39-.22,22.06,22.06,0,0,0,12.28-5.57c3.9-3.48,6.73-8.59,7.86-15.51h-.27A17.17,17.17,0,0,1,187,103c-10.53-.08-17.22-8.06-17.14-18C169.95,73.84,178,64.19,190,64.28s19.27,9.87,19.15,24.81c-.1,12.87-4.49,21.83-10.29,27.37a29.24,29.24,0,0,1-17.07,7.7,37,37,0,0,1-7.29.39Zm3.14-33.63c-.06,7.29,4.31,12.45,11.15,12.51a13.09,13.09,0,0,0,11.57-6,5.23,5.23,0,0,0,.74-2.87c.08-10-3.55-17.67-11.83-17.73C182.58,70.25,177.76,76.15,177.69,84.43Z"/></g></g></g></svg>