<svg xmlns="http://www.w3.org/2000/svg" width="639.999" height="641.035" viewBox="0 0 639.999 641.035"><path fill="#BC90C1" d="M373.982 613.663l-4.227-18.893-.952-.018c-2.89 0-5.588.678-8.197 1.338-1.195.3-2.43.61-3.63.84l-17.14 2.87c-.606-.327-.862-1.015-1.052-1.604l-17.17-161.636c-.243-2.33-2.004-2.35-2.61-2.35-.93-.03-2.062.194-3.126.172-.74-.05-1.285-.238-1.653-.68l-1.71-20.198-2.606-25.832-.675.65-.022-.21-.13.126-.104.328-.19.182-13.926 44.64-.117 3.617 12.076.328.08-.02c.666-.165 1.555.1 1.892.585.202.287.23.646.045 1.204l-15.694 141.69-2.172 22.26-.007.08.014.078c.282 1.635 1.63 1.64 2.438 1.644.447 0 .87.005 1.087.18l.162.126 23.687.14 1.208.987.355 30.39c-.152.765-.41 2.66.45 3.698.353.436.856.66 1.46.66.236 0 .497-.036.767-.107l18.852-.364 30.984-3.782.233-.08c.413-.252.997-.373 1.612-.5 1.182-.246 2.65-.556 3.27-2.03l.068-.16-3.63-20.35z"/><path fill="#DD6CA6" d="M458.404 550.627l-.368.04c-2.398.283-4.268 1.6-6.248 2.992l-17.298 10.644c-.665.17-1.325.54-1.967.898-.77.43-1.563.875-2.22.875-.296 0-.745-.076-1.177-.638l-71.508-148.47-.247-.336H357c-1.356 0-2.51.746-3.525 1.4-.867.563-1.685 1.09-2.48 1.09-.44 0-.875-.16-1.324-.496l-5.746-12.14-10.07-20.463-.238-.077c-.157-.05-.305-.073-.444-.073-1.087 0-1.096 1.217-1.1 1.675l-.005.204 1.006 39.47.004.16 1.047 1.65.422-.115c3.374-.924 6.298-2.485 9.397-4.138.76-.404 1.522-.812 2.317-1.223.1-.057.323-.122.615-.122.148 0 .894.025 1.002.562l34.766 148.882 3.886 14 1.548.054 24.902-9.208c.57-.013 1.137-.23 1.69-.44.51-.192 1.045-.395 1.5-.395.277 0 .642.062 1.032.544l15.726 41.543.265.09c.463.153.947.234 1.44.234 1.39 0 2.715-.616 3.994-1.21 1.052-.483 2.134-.987 3.234-1.145l14.047-6.433 20.747-10.83 7.968-5.03.27-.166.05-1.746-26.538-42.117z"/><path fill="#E6007E" d="M570.184 516.52l-41.938-30.78-6.984-4.39-.328.262c-2.184 1.73-3.908 4.168-5.574 6.53-.732 1.033-1.465 2.075-2.237 3.055l-9.846 11.957-1.235-.03-96.405-87.414-23.52-20.98-3.552-2.025-.104.088-.12-.067c-.935.764-1.774 1.604-2.857 1.733l-8.2-6.66-14.235-11.698-.063 1.95 5.966 17.952 5.31 12.665.57-.31c2.987-1.605 5.18-4.09 7.3-6.494.862-.978 1.75-1.985 2.668-2.897.026-.003.054-.005.085-.005.53 0 .894.484 1.397 1.224.206.31.408.6.557.742l73.727 108.228 19.983 28.648.135.14c.445.323.89.484 1.325.484.907 0 1.555-.674 2.125-1.275.265-.278.517-.54.845-.786l17.962-17.508c.264-.206.678.045 1.032.243l19.067 21.762 16.483 18.6.197.225.297-.027c2.884-.256 4.748-2.182 6.724-4.217 1.134-1.164 2.3-2.37 3.82-3.4l21.807-22.736 8.758-11.297-.94-1.494z"/><path fill="#E30613" d="M561.28 395.077l-8.097-1.546-1.393 4.607-5.232 21.017-.072.17c-.562 1.288-1.068 2.273-2.098 2.273-.03 0-.062 0-.1-.002l-146.137-57.702c-.516-.077-1.14-.32-1.805-.577-.97-.378-1.972-.767-2.933-.767-.342 0-.62.125-.912.224-.144.022-.283.052-.422.104l-.077.047c-.385.17-.727.483-1.014.97-3.324-.47-6.51-1.39-9.595-2.28-3.42-.99-6.96-2.013-10.707-2.438l-.952-.105.558 1.522 14.248 19.396 1.284.038.17-.337c.64-1.272 1.277-2.52 1.91-3.756 1.294-2.522 2.516-4.907 3.706-7.443l.81.03L517 457.863l10.916 7.252.247.16.278-.098c1.205-.427 1.784-1.482 2.346-2.507.32-.584.656-1.19 1.1-1.657l7.237-15.734 4.024-8.005.988.024 55.822 29.225c.866.62 1.644.916 2.38.916 2.07 0 3.068-2.353 3.948-4.433.48-1.14.984-2.32 1.586-2.96l9.905-21.933 7.784-21.91.11-3.38-64.39-17.747z"/><path fill="#F39200" d="M639.514 301.268c.01-.472-.13-.86-.422-1.16-.603-.62-1.667-.625-2.602-.627h-.584l-31.742 3.116-50.545 5.408-.095.41c-.328 1.434-.104 3 .11 4.52.087.58.173 1.166.226 1.738l1.286 17.463c-.467.863-.732 1.217-1.55 1.217l-156.145-2.048-.31-.005-1.98 2.748c-1.85.442-3.836.76-5.76 1.064-3.246.517-6.602 1.05-9.53 2.217l-.907.36 1.424 1.21 10.88 6.766 3.615 1.637.287-.366c1.217-1.55 1.266-3.508 1.315-5.4.04-1.636.08-3.186.844-4.39l153.827 38.845 4.01.104 1.29-9.215.85-18.71c.017-.682.466-1.663 1.14-1.733l70.83 8.948.085.01.09-.015c1.118-.202 2.282.012 3.404.218.818.146 1.59.285 2.354.285 1.158 0 2.07-.348 2.79-1.066l.147-.15 1.374-13.98.478-18.974-.484-20.445zM394.492 345.83c.004-.01.01-.016.013-.024-.004.01-.004.018-.01.027l-.003-.003z"/><path fill="#FBBA00" d="M627.054 232.012c-.382-1.105-.777-2.248-1.02-3.454l-9.037-26.683-7.17-15.692-.2-.09c-.49-.216-.994-.105-1.367.02-.2.067-.372.126-.597.126h-.005l-.152-.005-79.278 41.074-3.4 2.692 10.098 21.464c-.18.27-.44.377-.862.527-.233.083-.467.168-.588.25l-148.393 55.704.84.146-.08.03c.14.026.27.008.407.028l.966.17c.66.116 1.33.172 2.05.172 1.35 0 2.648-.207 3.902-.404 1.194-.188 2.322-.368 3.553-.388l143.174-16.822.185-.05c.623-.293 1.625-.325 2.595-.356 1.546-.05 3.15-.1 4.02-1.147.513-.61.68-1.442.504-2.617l-6.802-24.03c.22-.524.83-.785 1.68-1.005l68.147-17.466 17.89-4.983.064-.37c.4-2.416-.376-4.666-1.126-6.842z"/><path fill="#fd0" d="M562.4 111.14l-17.746-18.81-.13-.138-2-.396-68.624 75.51-.147.162-.067 2.228 13.48 12.887c.74.7 1.162 1.54 1.072 2.136-.054.372-.31.666-.907.985L385.89 273.32l-10.86 10.318.377.552-.238.227.3-.14.22.324 26.533-12.392L502.2 222.35l11.603-6.174.067-.25c.396-1.477-.355-2.624-.957-3.545-.175-.264-.346-.524-.53-.86l-13.277-17.907.027-1.26 79.25-58.7.234-.17.036-1.87-16.253-20.472z"/><path fill="#FFED00" d="M494.814 56.07c.562-.748 1.11-1.97.804-2.958-.126-.4-.444-.935-1.132-1.15l-13.768-8.633-27.143-14.127c-.558-.182-1.173-.5-1.824-.835-1.148-.595-2.34-1.212-3.512-1.212-.66 0-1.253.2-1.765.59l-.126.1-38.575 95.313-2.663 8.008.727.768 16.054 7.083c.63.154 1.527.727 1.892 1.382.14.25.18.474.152.58l-56.717 106.516-9.57 18.973.327.273-.153.3.27-.206.445.368 1.474-1.157 96.418-105.69.75-2.112-.184-.246c-.27-.364-.57-.618-.867-.865-.287-.24-.557-.47-.826-.815l-19.987-12.482.036-1.237 59.464-86.53z"/><path fill="#FFF482" d="M390.58 8.583l-.257-.238c-1.217-1.12-2.758-1.47-4.25-1.808-.767-.173-1.49-.34-2.29-.633l-25.378-4.316L337.002 0l-1.787 1.253-3.293 82.796-.898 35.964-.004.34.287.178c1.39.855 2.925.768 4.29.726.597-.018 1.172-.038 1.77.02l13.834.865 1.066 1.053-11.76 87.478-3.17 23.283-2.57 24.053.265.1-.017.183.104-.153.723.27.314-.483 48.452-121.556 3.063-9.65-.284-.255c-.93-.844-2.124-1.07-3.278-1.287-.984-.187-1.914-.362-2.62-.903l-16.99-2.942c-.778-.117-1.35-.348-1.532-.618-.045-.065-.086-.16-.04-.337L390.498 8.923l.08-.34z"/><path fill="#DBE283" d="M313.488 125.566l-.48-3.755-3.225-.075-18.012 3.092c-.372-.23-.713-.716-.705-1.103L277.833 7.174l-.045-.17c-.225-.522-.292-1.347-.36-2.144-.138-1.774-.336-4.204-2.784-4.204-.485 0-1.024.1-1.563.278L257.834 3.28l-26.02 6.296-11.036 3.587-.06 2.392 10.772 32.18 25.456 74.635 5.498 14.35 1.52.044 15.023-6.374c.32-.12.683-.184 1.038-.184.65 0 1.438.195 1.49 1.222l24.063 105.638 3.203 12.29.617-.605.058.22.247-.244.01-.283.22-.216 3.556-122.66z"/><path fill="#94C356" d="M250.128 146.98l-.13-.218c-.53-.564-1.356-.407-2.01-.117-.247.11-.503.225-.73.25l-16.17 10.943-1.56.537c-1.863-2.196-2.96-4.804-3.952-7.153l-57.792-113.56-.085-.17-1.423-.75-12.325 6.316-23.858 15.937-10.02 8.242.632 1.287 49.53 60.874 38.52 47.9.17.213.273.008.003.006.744.018.006-.004.218.004 12.075-10.46c.124-.05.256-.11.397-.174.736-.332 1.745-.635 2.042-.3l49.568 74.812 12.582 17.965.054-2.917-36.76-109.488z"/><path fill="#009F5E" d="M266.76 271.33l-65.07-81.634-.227-.173c-.588-.258-1.217.01-1.626.238-.137.077-.28.156-.366.176l-.208.045-13.542 17.34-1 .773L77.325 109.32l-.397-.367-4.31 3.937-16.892 22.06-12.384 18.615c-.458.53-.802 1.635-.586 2.567.148.636.528 1.1 1.038 1.316l129.58 73.628 2.038.124 5.51-11.777c.425-.397.75-.94 1.068-1.462.602-.997 1.015-1.603 1.675-1.603.182 0 .39.047.5.074l74.846 52.442 8.618 4.954-.87-2.496z"/><path fill="#88CDD3" d="M253.16 293.39l-71.764-42.854-10.142-5.25-.285.18c-1.032.64-1.45 1.672-1.68 2.404l-5.317 18.414c-.225.625-.995 1.512-1.51 1.32l-81.06-31.277L39.934 220.1l-22.85-8.162-.228-.08-.95.44-4.792 13.782-5.797 21.94-3.813 19.81 1.52.722 158.82 22.854.508.074.146-.492c.75-2.57.958-5.4 1.16-8.137.133-1.79.268-3.642.564-5.468.016-.508.157-1.38.892-1.72l67.705 15.148 1.77.44c5.805 1.444 12.387 3.08 18.4 3.578l1.263.105-1.093-1.542z"/><path fill="#00AFCB" d="M239.483 317.334L164.61 303.77l-.09-.017-.09.01c-1.252.165-1.288 1.508-1.308 2.487l2.062 20.606c-.736.442-1.725.64-3.14.64-.595 0-1.197-.03-1.786-.062-1.413-.077-2.697-.097-3.553.132l-151.727-.063-.227.045c-2.105.878-1.75 3.135-1.465 4.95.137.862.278 1.756.184 2.463l-.012.09 4.65 27.46c-.73.9-2.213 1.252-3.65 1.596-1.69.404-3.434.822-4.144 2.192-.472.91-.407 2.084.166 3.483l4.1 21.312 7.24 25.746 2.732 7.06.422-.017c3.322-.13 6.068-1.587 8.728-2.995.573-.303 1.15-.608 1.73-.902l.435-.218-.128-.467c-.107-.38-.186-.76-.266-1.133-.182-.857-.368-1.744-.772-2.4l-8.557-27.188-.145-.536c-.445-1.625-.696-2.928.41-3.604L46 377.284l107.484-25.504 18.243-4.854.05-.397c.264-2.157-.423-4.174-1.09-6.124-.546-1.597-1.11-3.247-1.125-4.94 1.466-1.25 3.56-1.52 5.767-1.802 1.18-.15 2.396-.306 3.436-.613l66.616-11.687 4.363-1.604-10.26-2.426z"/><path fill="#009FE3" d="M193.06 380.492l41.103-23.966 20.114-12.39-2.513-.056c-2.942 0-5.64.606-8.496 1.25-1.438.32-2.922.655-4.465.908l-61.02 13.056-.065 2.245 6.688 12.068c.115.53.438 1.04.752 1.532.802 1.262.903 1.648.234 2.098l-140.69 56.066-9.416 4.474-.076.25c-.324 1.08.047 2.02.375 2.85.164.413.32.806.386 1.19l10.8 20.927.944 2.852c-1.43 1.797-3.438 2.794-5.56 3.85-1.74.862-3.543 1.756-5.045 3.14l-.122.157c-.755 1.415-.032 2.668.55 3.675.28.488.548.95.645 1.382l13.47 21.893 15.084 20.28 4.083 4.043.397-.247c3.523-2.187 8.673-5.614 12.68-10.105l.325-.37-19.543-25.548.04-1.486 101.052-71.14 30.047-21.32 3.038-3.033-.045-.058.153-.154-5.45-7.164c-.437-.83-.976-2-.657-2.942.07-.07.11-.15.2-.208z"/><path fill="#0075BF" d="M267.844 364.965l.004-.007c-.01-.005-.016 0-.027-.003l-.35-.15c-.523-.222-1.05.003-1.204.243l-.296-.157-37.062 22.156-20.482 12.8-.16.1-.072.17c-.326.76.05 1.46.323 1.97.052.094.1.186.142.272l12.437 12.667-.018.74L99.41 524.89c-.436.413-.645.826-.643 1.262.006.68.534 1.164 1 1.586.327.3.664.61.783.93l21.625 19.36-.022.89-12.202 14.568.714 1.13 18.474 14.9 20.015 13.17 7.663 3.9.3-.364c4.585-5.503 8.187-12.204 11.107-18.034l.184-.37-.76-.816-17.702-11.13c-.95-.786-2.042-1.45-3.1-2.097-2.01-1.227-4.086-2.494-5.248-4.623l67.303-95.978 27.332-39.49-.175-.322c-.784-1.427-2.143-2.262-3.456-3.072-1.615-.993-3.02-1.857-3.246-3.643l7.968-10.455 30.384-40.488.454-.602-.32-.137z"/><path fill="#004F9F" d="M275.046 435.275c-1.21-.27-2.36-.525-3.227-1.284l15.176-53.58-.658-.104c-.914-.128-1.312.46-1.59.88-.205.31-.34.504-.597.594l-.167.06-33.7 44.687-.922 2.507.466.235c2.403 1.224 4.64 2.285 7.512 2.836.696.314 1.534.517 2.342.714 2.354.57 3.807 1.05 3.896 2.78l-71.08 142.836-2.896 6.732.198.274c.826 1.132 1.88 1.51 2.81 1.842.575.202 1.118.4 1.58.754l21.368 7.146c.46.314.988.485 1.498.65 1.053.343 1.574.554 1.585 1.416l-7.655 22.18c-.61.94-.48 1.734-.26 2.232.392.907 1.418 1.617 2.598 1.824l17.758 5.866 22.954 5.358c.48.094.977.202 1.487.318 1.566.347 3.184.706 4.762.706 1.368 0 2.498-.274 3.454-.84l.24-.14 3.564-21.965.462-7.897-27.678-4.788-1.862-1.267 39.81-157.943.377-4.215-.286-.195c-1.01-.695-2.184-.956-3.318-1.21z"/></svg>
