<svg xmlns="http://www.w3.org/2000/svg" viewBox="0 0 74.89 75">
    <defs>
        <style>.cls-1{fill:#fff;}</style>
    </defs>
    <title>Element 1</title>
    <g id="Ebene_2" data-name="Ebene 2">
        <g id="Ebene_1-2" data-name="Ebene 1">
            <path class="cls-1"
                  d="M44.5.62c.51.12,1,.22,1.21.3L42.38,14.21s1.26.18,2.26.42l.73.18L39.19,30.18l2.14-16-1.13-.06c-.49,0-1.18,0-1.43,0L39.28,0h.16s1.22.07,2.32.18A25.69,25.69,0,0,1,44.5.62Z"/>
            <path class="cls-1"
                  d="M34.07,14.88s.56-.13,1.45-.25l1.17-.14-.42,15L33,15.31s-.47.14-1.1.38c-.35.14-1.1.48-1.1.48L25.89,1.94l-.07-.2a12.45,12.45,0,0,1,1.33-.43C28,1.1,29,.82,30.2.61S32.42.25,32.42.25l1.65,14.63Z"/>
            <path class="cls-1"
                  d="M56.54,5.26c.75.44,1.54,1,1.54,1L50.81,16.8l1.54.92a12.55,12.55,0,0,1,1.22.85L41.89,31.24l7.85-14.82s-.54-.32-1-.55-1.27-.57-1.27-.57l4.9-12.16,1.23.55C54.23,4,55.79,4.82,56.54,5.26Z"/>
            <path class="cls-1"
                  d="M26.9,18.73s.62-.45,1.2-.84,1.13-.71,1.13-.71l4.34,13.1L26.25,19.34l-.71.58c-.37.3-1,.89-1,.89L14.07,7.87A9.88,9.88,0,0,1,15.19,7C16,6.37,17.27,5.5,18.09,5s1.42-.74,1.42-.74,7.14,14.18,7.39,14.45Z"/>
            <path class="cls-1"
                  d="M22.57,23.44c.55-.73,1-1.25,1-1.25L31.29,32,21.5,25.21s-.22.39-.47.84c-.41.74-.54,1.06-.54,1.06L5,18.25c0-.07,1-1.64,1.53-2.36s1.68-2.25,2-2.61.48-.53.48-.53L21.76,24.57s.18-.28.81-1.12Z"/>
            <path class="cls-1"
                  d="M72.3,23.9c.42,1,.75,2.14,1,2.85s.33,1.16.33,1.16L63.19,30.64s.08.34.41,1.48A16.94,16.94,0,0,1,64,33.86S45.13,36,45.17,36.05l17.48-6.56s-.28-.7-.6-1.4c-.22-.47-.6-1.24-.6-1.24l9.9-5.12a18.19,18.19,0,0,1,1,2.16Z"/>
            <path class="cls-1"
                  d="M19.32,31.5s.1-.58.31-1.35c.26-1,.42-1.45.42-1.45l9.69,5.8L19.27,32.17c-.11.76-.18,1.4-.21,1.92L.21,31.35S.43,30,.66,29a26.08,26.08,0,0,1,.67-2.58,13.63,13.63,0,0,1,.57-1.63l17.42,6.7Z"/>
            <path class="cls-1"
                  d="M74.84,35.21s.07,1.85.06,2.42,0,1.39-.06,2.24-.18,1.74-.18,1.74l-9.41-1.12s0,.18-.1,1.81A13.6,13.6,0,0,1,65,44.07L46.45,39.39a9.8,9.8,0,0,1-.18,1.24l-1.86-1.08s2.05-.41,2.05-.41l0-.31,18.58.26s0-.6-.08-1.38-.18-1.61-.18-1.61l10-1s0,0,0,.16Z"/>
            <path class="cls-1"
                  d="M29,37.4l-9.23,1.8A11.1,11.1,0,0,0,20,40.53L1.69,45s.25,1.1.54,2,.69,2.1.69,2.1l-1.2.45s0,0-.29-.85-.75-2.54-1-3.85-.39-2-.39-2l1-.23s-.25-1.14-.39-2.1C.54,40,.38,38.36.38,38.36l19-.11-.19-1.6c0-.1-.07-1.1-.07-1.1L29,37.4Z"/>
            <path class="cls-1"
                  d="M22.48,44.57s.07.13.39.6a5.91,5.91,0,0,0,.44.6L7.43,57a12.42,12.42,0,0,0,1,1.42c1.09,1.43,1.4,1.79,1.4,1.79L8.32,61.36s-.83-.94-1.61-2S5.73,58,5.12,57s-.85-1.48-.85-1.48l1.36-.92S5.35,54.1,4.83,53s-.76-1.71-.76-1.71l17.86-7.18s-.21-.36-.5-1c-.45-.91-.52-1.1-.52-1.1l8.79-1.8-7.21,4.28Z"/>
            <path class="cls-1"
                  d="M45.93,42.36s18,7.17,18,7.12a13.5,13.5,0,0,0,.49-1.69c.26-1,.42-1.72.42-1.72l8.45,2.32s-.32,1.1-.71,2.16c-.3.82-1,2.39-1.42,3.28-.26.54-.5.93-.5.93l-7-3.74s-.18.42-.78,1.67c-.77,1.59-.95,1.78-.91,1.77L45.77,42.93s0,.08-.3.65-.44.85-.44.85L43.32,42l2.51.59.1-.28Z"/>
            <path class="cls-1"
                  d="M26.71,48.89a5.73,5.73,0,0,0,.93.63l-11.18,16s.59.46,1.45,1,1.73,1.12,1.73,1.12l-1.31,2.16s-.24-.12-1-.62a30.86,30.86,0,0,1-2.62-1.79A21.85,21.85,0,0,1,12.92,66l1.46-1.74s-.87-.72-1.66-1.45a11.92,11.92,0,0,1-1.19-1.2l14.53-13-.85-.82a8.3,8.3,0,0,1-.82-.91l2.49-1.55,4.48-2.61-4.65,6.18Z"/>
            <path class="cls-1"
                  d="M44,46.23s.15-.15.32-.36l14.56,13.2s.34-.36,1.15-1.43,1-1.39,1-1.39l5.77,4.28a12.69,12.69,0,0,1-1.06,1.37,24.72,24.72,0,0,1-2.35,2.42c-.58.52-1.37,1.1-1.37,1.1l-4.22-4.81L56.65,61.7c-.8.76-1.45,1.3-1.45,1.3L43.88,46.49a17,17,0,0,1-1.23,1.24l-1.29-3.66Z"/>
            <path class="cls-1"
                  d="M31.75,50.92c.33.1.75.12.91.16L27.81,70.26a14.76,14.76,0,0,0,1.71.34c1.66.26,1.93.26,1.93.26l-.62,3.54s-.44-.06-1.77-.31a24.78,24.78,0,0,1-2.45-.62c-1-.28-2-.65-2-.65l1-2.89s-.79-.26-2-.72c-.75-.29-1.5-.63-1.5-.63L31,50.83s-.35-.1-.73-.24a8.43,8.43,0,0,1-1-.44l4.32-5.62-1.82,6.4Z"/>
            <path class="cls-1"
                  d="M40.92,49.2a8.52,8.52,0,0,0,.8-.49l8.6,17.75s.73-.41,1.64-.94,1.66-1,1.66-1l3.2,5a10.75,10.75,0,0,1-1.27.78c-.86.44-1.69.91-2.7,1.36s-2.06.88-2.06.88l-1.93-5.09-1.69.73c-.74.32-1.88.75-1.88.75L40.73,49.4s-.24.15-.7.37-.52.26-1,.46l-.1-5.06,2,4Z"/>
            <path class="cls-1"
                  d="M36.73,51a4.43,4.43,0,0,0,.83-.13l2,19.6s.31,0,1.77-.29c.91-.17,1.9-.47,1.9-.47l.95,4.7s-.51.12-1.42.27a31.31,31.31,0,0,1-3.12.31c-1.25.08-2.18.05-2.18.05l0-4.16s-.5,0-1.58.07-1.82,0-1.82,0l2.11-19.76c-1.09.06-1.74,0-1.74,0l1.76-5.73L36.73,51Z"/>
            <path class="cls-1"
                  d="M67.89,15.56l-9.53,7.05s.65.83,1.1,1.46.81,1.22.81,1.22L44,33.35,57.33,21.74a9.88,9.88,0,0,0-.75-.89c-.62-.63-1.07-1.07-1.07-1.07l8.21-9s1.67,1.75,2.2,2.38,2,2.44,2,2.44Z"/>
        </g>
    </g>
</svg>