<svg xmlns="http://www.w3.org/2000/svg" xmlns:xlink="http://www.w3.org/1999/xlink" width="401.4" height="112.9"
     viewBox="0 0 401.4 112.9" enable-background="new 0 0 401.4 112.9">
    <defs>
        <path id="a" d="M0 0h401.4v112.9H0z"/>
    </defs>
    <clipPath id="b">
        <use xlink:href="#a" overflow="visible"/>
    </clipPath>
    <path clip-path="url(#b)" fill="#C6071C"
          d="M140 65.4h7.3c-.4 1.4-1 3.7-3.6 6.9-2.8 3.7-6.3 4.9-8.5 4.5-3.5-.6-4.8-4.8-5-8.9-.3-5.6 3.2-18.3 8.6-23.5 2.3-1.9 4.2-2.8 6.4-2.8 3.4 0 6.1 2.2 5.7 8.1h6c.1-1.1 1.7-5.5-.5-11.1-2-5-6.3-5.4-9.4-5.4-2.8 0-5 .9-6.6 1.8-12.7 7.3-20.3 32.6-15.7 43.8.9 2.2 2 5.8 7.7 6.3 6.2.5 10.2-4.5 12.5-7.5l-.8 6.2h4l6.9-26.7h-12.9l-2.1 8.3"/>
    <path clip-path="url(#b)" fill="#C6071C"
          d="M165.5 34l-12.9 49.5h6.2L171.6 34zM188.2 33.9l-2.2 8.3h4.8l2.2-8.3h-4.8zm-10.4 8.3h4.8l2.2-8.3H180l-2.2 8.3zm16 4.5h-6.2l-6.2 23.7c-.7 2.3-2.2 5.6-6.1 6.2-4.6.3-3.5-3.9-2.6-7.1l5.9-22.8h-6.2l-6.6 25.6c-2.9 12.1 2.4 13 5.9 12.5 2.4-.3 5.6-2.5 7.4-5.8h.1l-1.2 4.5h6.2l9.6-36.8M215.4 60.4c1-4.9 1.1-10-1.3-12.3-1.2-1.2-3.3-2.1-5.8-2-2.8 0-7.1.5-12.4 10.4-2.5 4.7-4 11-4.5 14.2-1 5.4-.7 14.6 6.8 14.3 3.5-.2 5.6-1.2 8.1-3.3 1.4-1.2 5.1-6 6.4-11.1h-5.9c-2.5 5.6-4.6 6.7-6.1 6.5-1.9-.1-3.3-.9-2.8-6.6.4-4.4 2.5-9.6 3-10.7 1.6-3.5 3.6-5.4 5.7-5.4 1.4 0 3.8.5 3 6h5.8"/>
    <path clip-path="url(#b)" fill="#C6071C"
          d="M225.2 34l-12.9 49.5h6.2l3-11.5 3.6-4.2 1.5 15.7h7.2l-2.6-22.7 11.7-14.1h-7.1L224.4 61h-.1l7-27zM236.1 72.7c-.6 2.4-1.4 7.7 2.4 10.9 1 .8 2.8 1.3 4.9 1.4 2.1.1 4.4-.3 6.3-1.2 4.6-2.2 7.3-8.1 8.2-11.8 1.2-4.6-.6-7.1-3.1-8.4l-6.3-3.4c-2.1-1.4-1-4.5.8-5.8 1.7-1.3 3.5-1.4 4.6-.7 1.6.9 1.7 2.5 1.1 4.9h5.9c.7-2.7 1.5-6.4-1-9.8-1.6-2.1-4.1-2.8-6.7-2.7-2.6.1-5.2 1.2-7 2.9-1.9 1.7-4.2 4.8-5.4 9.6-.8 3.3-1.1 6.8 2.8 8.7l5.7 2.9c2.9 1.2 1 7.4-3 7.8-2.7.3-4.5-.4-4-5.2l-6.2-.1M291.1 49.1c.7-1.6 1.4-6.2.6-9.6-1.5-6.1-7.5-6.3-9.2-6.3-7.8 0-13.1 5.8-15.6 13.7-2.6 8-.8 11.9 2.3 13.7 3.6 2.2 9.9 2.2 11.1 5.6.9 2.4-.4 6.3-2.3 8.3-1.2 1.2-3.5 2.2-5.7 2.3-2.2.1-4.4-.6-5.3-2.9-.6-1.8-.4-3.8 0-5.1h-6.4c-1 4.7-.9 9.6 1.2 12.8 1.7 2.6 5.3 3.3 7 3.5 3.6.3 7.5-.7 10.9-3.5 5.1-4 9.8-15.7 7.7-21.7-1.2-3.2-4.7-4.4-6.3-4.9-1.1-.3-6-1.5-7.3-2.8-1.1-1-1.8-1.8-.7-5.2 1.3-4.1 4.1-5.8 7.3-5.7 4.5.1 5.7 3.8 4.6 7.8h6.1M305.2 54.5c1.4 0 2.8 1.1 3 4.1.1 1.4 0 4.1-.8 7.2-.8 3.1-2.1 5.8-2.9 7.2-1.8 3.1-3.8 4.1-5.2 4.1-1.5 0-2.8-1.1-3.1-4.1-.1-1.4 0-4.1.8-7.2.8-3.1 2.1-5.8 2.9-7.2 1.9-3 3.9-4.1 5.3-4.1m-9.3-7.8l-13.4 51.6h6.2l4.8-18.7c.6 2.8 1.8 5.4 5 5.4 3.3 0 5.2-1 7.9-4.1 6.4-7.2 10.2-23.3 7.7-30.5-.7-1.8-2.2-4.8-5.5-4.4-3.9.3-5.4 3.1-7.9 6.2l1.4-5.6h-6.2M323.6 83.5h6.2l5.4-20.7c2.8-8 6.7-7.5 9.2-7l2.5-9.7c-1.8-.5-3.8.5-5.2 1.7-2.2 1.8-3.1 3.9-4.1 6h-.1l1.9-7.1h-6.2l-9.6 36.8"/>
    <path clip-path="url(#b)" fill="#C6071C"
          d="M375.9 34l-12.8 49.5h6.1L382.1 34zM385.1 61.7c.9-3.5 3.4-7.9 7.2-7.7 3.6.3 3 4.9 2.3 7.7h-9.5zm14.2 6.4c1.3-4.4 2.6-9.4 1.8-14.7-.5-3.7-2.5-7.3-7.2-7.3-2.7 0-9.4.7-14.7 15.1-1 2.9-1.8 5.7-2.3 7.9-.5 2.2-.7 3.9-.7 4.5-.2 3.2.4 6.5 2 8.8 1.2 1.6 3.2 2.8 5.5 2.8 4.2 0 11.1-4.8 14-11.9h-6.1c-.8 1.9-2.7 3.6-4.6 4.1-1.9.5-3.7-.3-4.4-3.3-.4-1.9.1-3.9.8-5.9l15.9-.1M323.4 42.5h6.2l2.2-8.5h-6.2l-2.2 8.5zm-10.7 41h6.2l9.6-36.8h-6.2l-9.6 36.8M356.1 68.3c-1.1 4.1-2.7 8-6.6 8.9-2.8.7-3.5-.9-3.3-3.1.3-3 2.2-5.4 4.2-6 1.7-.5 4-.3 6.2-2l-.5 2.2zm3.2 15.2l.3-1.3c-.5-1.1-.7-2.7-.2-4.3l5.2-20.1c1.5-5.8.4-8.8-1.6-10.3-1-.7-2.9-1.4-5.3-1.4-3.3 0-10.1 1.1-13.2 12.8h5.8c.8-2.6 2.1-5.8 5.6-6 2.5-.1 3.8 1 3.2 3.3-.4 1.8-1.4 3.5-2.6 4.1-1.6.7-3.8 1.1-6.6 1.7-6 1.2-8.5 6.4-9.9 11.6-2 7.1-.7 11.3 4.1 11.3 3.6 0 6.1-2.1 9-5.2-.4 1.3-.5 2.8-.3 3.7h6.5"/>
    <path clip-path="url(#b)" fill="#fff"
          d="M68.1 2.3c.4.1.8.1 1.1.4l-4.9 19.5c0 .2.2.3.4.3l3 .5c.3.2.8.1 1 .4l-.5 1.6-8.6 21.2v.1L60 42l.6-4.1 2.1-15.3-.3-.2-2.5-.2c-.3 0-.7.1-1-.1l.2-6.3.6-14.4.2-.2 3.7.3 4.5.8"/>
    <path clip-path="url(#b)" fill="none" stroke="#fff" stroke-width=".257" stroke-miterlimit="3.864"
          d="M68 2.3c.4.1.8.1 1.1.4l-4.8 19.4c0 .2.2.3.4.3l2.9.5c.3.2.7.1 1 .4l-.5 1.6-8.4 21.2v.1L60 42l.6-4.1 2.1-15.3-.3-.2-2.4-.2c-.3 0-.7.1-1-.1l.2-6.3.6-14.4.2-.2 3.7.3 4.3.8z"/>
    <path clip-path="url(#b)" fill="#fff"
          d="M49.5 2.4l2.3 20.4c0 .1.1.2.2.3l3.2-.5h.5l.1.6-.6 21.4-.5-2-4.2-18.5c0-.3-.4-.3-.6-.3L47.1 25h-.2l-.9-2.5-4.5-13-1.9-5.6v-.3l1.9-.6 4.6-1.1 2.7-.4c.8-.4.5.5.7.9"/>
    <path clip-path="url(#b)" fill="none" stroke="#fff" stroke-width=".257" stroke-miterlimit="3.864"
          d="M49.5 2.5l2.3 20.3c0 .1.1.2.2.3l3.2-.5h.5l.1.6-.6 21.3-.5-2-4.2-18.4c0-.3-.4-.3-.6-.3l-2.6 1.1h-.2L46 22.5l-4.4-13-1.9-5.6v-.3l1.9-.6 4.5-1.1 2.6-.4c.9-.3.6.6.8 1z"/>
    <path clip-path="url(#b)" fill="#fff"
          d="M84.9 8.8l2.4 1.5c.3.1.1.4 0 .6L76.9 26v.3l3.5 2.2.3.3-.1.3-16.9 18.4-.2.2 1.7-3.3 9.9-18.6c.1-.2-.2-.4-.4-.5l-2.8-1.2-.1-.1.4-1.3L79 6c.3-.3.8.2 1.1.3l4.8 2.5"/>
    <path clip-path="url(#b)" fill="none" stroke="#fff" stroke-width=".257" stroke-miterlimit="3.864"
          d="M84.9 8.8l2.4 1.5c.3.1.1.4 0 .6L76.9 26v.3l3.5 2.2.3.3-.1.3-16.8 18.4-.2.2 1.7-3.3 9.9-18.5c.1-.2-.2-.4-.4-.5l-2.7-1.2-.2-.2.4-1.3L79 6.1c.3-.3.8.2 1.1.3l4.8 2.4z"/>
    <path clip-path="url(#b)" fill="#fff"
          d="M40.4 27.7c.2.4.4.9.8 1.3l.4-.1 2.8-1.9c.2 0 .3-.2.4-.1l6.4 19.2v.2l-2-2.9-8.7-13.1c-.1-.2-.4 0-.6 0l-2.1 1.8h-.1L31 23.7 22.2 13l-.1-.1 1.7-1.4L28 8.7l2.1-1.1.2.1 10.1 20"/>
    <path clip-path="url(#b)" fill="none" stroke="#fff" stroke-width=".257" stroke-miterlimit="3.864"
          d="M40.4 27.6c.2.4.4.9.7 1.3l.4-.1 2.8-1.9c.2 0 .3-.2.4-.1l6.4 19v.2l-2-2.9-8.6-13c-.1-.2-.4 0-.6 0L37.8 32h-.1L31 23.7l-8.6-10.6-.1-.1 1.7-1.4 4.1-2.8 2.1-1.1.2.1 10 19.8z"/>
    <path clip-path="url(#b)" fill="#fff"
          d="M99.1 20.6l2.8 3.5v.2L88 34.6v.3l2.3 3.2c.1.2.3.4.2.7l-2 1.1L71 48.6l-4.6 2.2 1.9-1.8L86 33.7c.3-.2.2-.5 0-.7l-2.3-2.2v-.3l12-13.2.3.1 3.1 3.2"/>
    <path clip-path="url(#b)" fill="none" stroke="#fff" stroke-width=".257" stroke-miterlimit="3.864"
          d="M99 20.6l2.8 3.5v.2L88 34.6v.3l2.3 3.1c.1.2.3.4.2.7l-2 1.1-17.4 8.7-4.6 2.2 1.9-1.8 17.7-15.3c.3-.2.2-.5 0-.7l-2.3-2.2v-.3l11.9-13.1h.3l3 3.3z"/>
    <path clip-path="url(#b)" fill="#fff"
          d="M33.6 37.4l2.4-3c.1 0 .2-.1.3-.1l11.4 14.3.1.2-1.3-.7-13.1-9.2c-.4-.2-.5.4-.7.5l-.9 2h-.2L8.8 28.5c-.2-.1-.1-.4-.1-.5l2.2-3.3 3-3.9.7-.6 18.9 17.4.1-.2"/>
    <path clip-path="url(#b)" fill="none" stroke="#fff" stroke-width=".257" stroke-miterlimit="3.864"
          d="M33.6 37.4l2.4-3c.1 0 .2-.1.3-.1l11.3 14.2.1.2-1.3-.7-13-9.1c-.4-.2-.5.4-.7.5l-.9 2h-.2L8.9 28.5c-.2-.1-.1-.4-.1-.5l2.2-3.3 2.9-3.8.7-.6 18.8 17.3.2-.2z"/>
    <path clip-path="url(#b)" fill="#fff"
          d="M108.6 36.3l1.6 4.7c.1.6.5 1.1.4 1.8l-3.1.9-12 3.1c-.2 0-.3.1-.4.3l1.2 4.2c.1.7-.8.4-1.2.6L70 54.8c-.5 0-1.1.2-1.6.1l25.7-9.6c.1-.1.3-.1.3-.2l-1.4-3-.4-.8.5-.4 13.9-7.2c.1 0 .2-.1.3 0l1.3 2.6"/>
    <path clip-path="url(#b)" fill="none" stroke="#fff" stroke-width=".257" stroke-miterlimit="3.864"
          d="M108.5 36.4l1.6 4.6c.1.6.5 1.1.4 1.7l-3 .9-11.9 3c-.2 0-.3.1-.4.3l1.2 4.2c.1.7-.8.4-1.2.6l-24.9 2.9c-.5 0-1 .2-1.6.1l25.5-9.6c.1-.1.3-.1.3-.2L93.1 42l-.4-.8.5-.4 13.8-7.1c.1 0 .2-.1.3 0l1.2 2.7z"/>
    <path clip-path="url(#b)" fill="#fff"
          d="M15.3 42.4l14.2 5.5c.2.1.4-.2.4-.3l.9-3.2c0-.2.1-.3.2-.4l1.7.9 12.5 7.5.1.1c-1.2-.1-2.4-.4-3.5-.7L30 49.1c-.2.1-.2.2-.2.4-.1.8-.1 1.6-.3 2.4l-13.8-2-13.9-2-.2-.1.7-3.4 1-3.9.7-2.3h.1l4 1.4 7.2 2.8"/>
    <path clip-path="url(#b)" fill="none" stroke="#fff" stroke-width=".257" stroke-miterlimit="3.864"
          d="M15.3 42.5l14.1 5.4c.2.1.4-.2.4-.3l.9-3.2c0-.1.1-.3.2-.4l1.7.9 12.5 7.4.1.1c-1.1-.1-2.4-.4-3.5-.7l-11.8-2.6c-.2.1-.2.2-.2.4-.1.8-.1 1.6-.3 2.3l-13.8-2-13.9-2-.2-.1.6-3.4 1-3.8.9-2.3h.1l4 1.4 7.2 2.9z"/>
    <path clip-path="url(#b)" fill="#fff"
          d="M112.5 53.6l.1 3.6-.1 3.3-.2 2.4c-.4.4-.9 0-1.4.1l-12.4-1.6c-.2 0-.3.2-.3.4l-.2 3.3-.2 1.5h-.6l-27-6.9c-.4.5 0 1.3-.4 1.8l-.6-.3-1.9-1.2h-.1c.8-.3 1.8-.4 2.7-.6l.3-.5 27.3.4c.2 0 .3-.1.4-.3l-.2-3.1c0-.4-.1-.7-.1-1.1l8.8-.9 5.6-.5c.2 0 .5 0 .5.2"/>
    <path clip-path="url(#b)" fill="none" stroke="#fff" stroke-width=".257" stroke-miterlimit="3.864"
          d="M112.4 53.7l.1 3.6-.1 3.3-.2 2.4c-.4.4-.9 0-1.4.1l-12.3-1.6c-.2 0-.3.2-.3.4l-.2 3.2-.2 1.5h-.6l-26.8-6.8c-.4.5 0 1.3-.4 1.8l-.6-.3-1.9-1.2-.1-.1c.8-.3 1.8-.4 2.7-.6l.3-.5 27.2.4c.2 0 .3-.1.4-.3l-.3-3c0-.4-.1-.7-.1-1.1l8.7-.9 5.5-.5c.4 0 .7-.1.6.2z"/>
    <path clip-path="url(#b)" fill="#fff"
          d="M44.3 56.9l-.4.1-11.6 2c-.5.2-1.3.1-1.7.5 0 .7.5 1.3.4 2l-3.1.8-18.8 4.5-5.2 1.3c-.3.2-.2.6-.1.8l1.5 4.8c.1.2.1.4.2.6-.6.3-1.1.7-1.8.7l-.5-1.2L2 69.3l-.7-3.7c-.4-1.1 1-.7 1.3-1.2l-.8-4.8c.1-.4-.3-1 .2-1.2h26.5c.4-.1 1.2.1 1.6-.2l-.4-3.7c0-.2 0-.3.1-.3l13.1 2.4 1.4.3"/>
    <path clip-path="url(#b)" fill="none" stroke="#fff" stroke-width=".257" stroke-miterlimit="3.864"
          d="M44.3 56.9l-.4.2-11.6 2c-.5.2-1.3.1-1.7.5 0 .7.5 1.3.4 2l-3.1.8-18.7 4.4L4 68.1c-.3.2-.2.6-.1.8l1.5 4.7c.1.2.1.4.2.6-.6.3-1.1.6-1.8.7l-.5-1.2L2 69.2l-.7-3.7c-.4-1.1 1-.7 1.3-1.2l-.8-4.8c.1-.4-.3-1 .2-1.2h26.4c.4-.1 1.1.1 1.6-.2l-.4-3.6c0-.2 0-.3.1-.3l13 2.4 1.6.3z"/>
    <path clip-path="url(#b)" fill="#fff"
          d="M42.1 63.1l-7.2 4.2c-.3.2-.1.5 0 .7l.9 1.2-.5.5-5.3 3.7-17.7 12.5v.3l3.4 4.4c-.6.7-1.4 1.3-2.2 1.8l-.7-.6-2.6-3.5-2.3-3.8c-.1-.3-.4-.5-.2-.8.6-.5 1.4-.6 1.9-1.3l-.2-.6-1.9-3.6c0-.2-.2-.4-.1-.7l1.6-.7L33.7 67c.4-.2-.1-.5-.1-.8l-1.2-2.1v-.3L43 61.5c.8-.1 1.5-.4 2.3-.4l-3.2 2"/>
    <path clip-path="url(#b)" fill="none" stroke="#fff" stroke-width=".257" stroke-miterlimit="3.864"
          d="M41.9 63.2l-7.2 4.2c-.3.2-.1.5 0 .7l.9 1.2-.5.5-5.1 3.7-17.6 12.4v.3l3.4 4.4c-.6.7-1.4 1.3-2.2 1.7l-.7-.6-2.6-3.5L8 84.4c-.1-.3-.4-.5-.2-.8.6-.5 1.4-.6 1.9-1.3l-.2-.5-1.9-3.6c0-.2-.2-.4-.1-.7l1.5-.7L33.5 67c.4-.2-.1-.5-.1-.8l-1.2-2.1v-.3l10.5-2.3c.8-.1 1.5-.4 2.3-.4l-3.1 2.1z"/>
    <path clip-path="url(#b)" fill="#fff"
          d="M69.2 64.6c.3-.5.8-.1 1.2 0L96 74.7c.3 0 .4-.3.5-.5l.9-3.7.2-.7 1.3.3 11.2 3.1v.5l-1.4 3.8-1.7 3.8c-.4.4-.5 1.7-1.2 1.1L96 77.3h-.3l-.7 1.4-1.2 2.7c-.2.2-.3.6-.6.7l-1.9-1.3-21.8-15.6h-.2c-.3.7-.7 1.3-1 2h-.1l-2.4-3.3v-.1c1.1.1 2.2.6 3.4.8"/>
    <path clip-path="url(#b)" fill="none" stroke="#fff" stroke-width=".257" stroke-miterlimit="3.864"
          d="M69.3 64.7c.3-.5.8-.1 1.2 0l25.4 10c.3 0 .4-.3.5-.5l.9-3.7.2-.7 1.3.3 11.1 3.1v.5l-1.4 3.8-1.7 3.8c-.4.4-.5 1.7-1.2 1.1L96 77.3h-.3l-.7 1.4-1.2 2.7c-.2.2-.3.6-.6.7l-1.9-1.3-21.7-15.5h-.2c-.3.7-.7 1.3-1 2h-.1L65.8 64v-.1c1.2.1 2.3.6 3.5.8z"/>
    <path clip-path="url(#b)" fill="#fff"
          d="M42.5 71.8l-1.4 1.9c0 .7.9.7 1.2 1.3l-4.8 6.9-11.8 16.7c.3.6 1 .9 1.5 1.3l3.1 1.9.1.1c-.6 1.1-1.2 2.2-1.9 3.1l-1.3-.6-3.5-2.3-3.2-2.6-.1-.1 2.1-2.5v-.2l-3.8-3.4c-.1-.2-.5-.3-.2-.6l21.3-19.1v-.2l-2.2-2.2c0-.1-.1-.2-.1-.3l3.6-2.2 6.4-3.8c.1 0 .1-.1.2 0l-5.2 6.9"/>
    <path clip-path="url(#b)" fill="none" stroke="#fff" stroke-width=".257" stroke-miterlimit="3.864"
          d="M42.4 71.9L41 73.7c0 .7.9.7 1.2 1.2l-4.7 6.8-11.8 16.9c.3.6 1 .9 1.5 1.3l3.1 1.9.1.1c-.5 1.1-1.2 2.2-1.9 3.1l-1.3-.6-3.5-2.3-3.2-2.6-.1-.1 2.1-2.5v-.2l-3.8-3.4c-.1-.2-.5-.3-.2-.5l21.2-19v-.2l-2.2-2.2c0-.1-.1-.2-.1-.3l3.6-2.2 6.4-3.8c.1 0 .1-.1.2 0l-5.2 6.8z"/>
    <path clip-path="url(#b)" fill="#fff"
          d="M66.5 69.9c.2 0 .4-.2.6-.3l.6.3 4.1 3.7 16.9 15.3h.3l1.8-2.1c.5-.6.8-1.2 1.4-1.7l1.2.7 7.3 5.4.1.2-1.5 1.9-3.8 4c-.7.5-1 1.2-1.8 1.3l-2.9-3.3-3.3-3.8c-.1 0-.2-.1-.3-.1L84 94.5c-.2.1-.3.5-.6.3l-3.5-5-12.9-19c-.1-.1-.2-.4-.5-.4-.6.6-1 1.3-1.7 1.7L63.7 70l-1-3.1v-.1l2.3 1.9 1.5 1.2"/>
    <path clip-path="url(#b)" fill="none" stroke="#fff" stroke-width=".257" stroke-miterlimit="3.864"
          d="M66.6 70c.2 0 .4-.2.6-.3l.6.3 4.1 3.6 16.8 15.2h.3l1.7-2.1c.4-.6.8-1.2 1.3-1.7l1.2.7 7.3 5.3.1.2-1.6 2.1-3.8 3.9c-.7.5-1 1.2-1.8 1.3l-2.9-3.2-3.3-3.8c-.1 0-.2-.1-.3-.1l-3.1 3.1c-.2.1-.3.5-.6.3l-3.5-5L66.9 71c-.1-.1-.2-.4-.5-.4-.6.5-1 1.3-1.7 1.6l-.9-2.1-1-3.1v-.1l2.3 1.9 1.5 1.2z"/>
    <path clip-path="url(#b)" fill="#fff"
          d="M48.5 76.8c.3.3.8.2 1.2.5l-.1.7-7 27.6.4.3 3.8.6 1 .2-.1 1.3-.6 3.8c-.5.3-1.1.1-1.6 0l-4-.9-3.1-1c-.3 0-.5-.3-.4-.6l1.4-3.9c0-.4-.4-.3-.6-.5l-3.7-1.2c-.2-.2-.5-.1-.8-.4l.5-1.1 12.5-25c0-.6-.7-.5-1.2-.7-.5-.1-.9-.3-1.3-.5l.1-.3 5.9-7.8c.2-.1.2-.3.3-.3l-2.6 9.2"/>
    <path clip-path="url(#b)" fill="none" stroke="#fff" stroke-width=".257" stroke-miterlimit="3.864"
          d="M48.4 76.8c.3.3.8.2 1.2.5l-.1.7-6.9 27.6.4.3 3.7.6 1 .2-.1 1.3-.6 3.8c-.5.3-1.1.1-1.6 0l-4-.9-3.1-1c-.3 0-.5-.3-.4-.6l1.3-3.9c0-.4-.4-.3-.6-.5l-3.7-1.2c-.2-.2-.5-.1-.7-.4l.5-1.1 12.4-24.9c0-.6-.7-.5-1.1-.7-.5-.1-.9-.3-1.3-.5l.1-.3 5.9-7.8c.2-.1.2-.3.3-.3l-2.6 9.1z"/>
    <path clip-path="url(#b)" fill="#fff"
          d="M60.9 72l1 2.1c.5.4.9-.3 1.4-.3l12.5 25.9c.3.4.7-.1 1.1-.1l2.9-1.8c.4-.3.8-.6 1.2-.6l4.6 7.3v.2l-1.4.9-3.6 1.9-2.4 1.1c-.5.1-1 .5-1.5.4l-2.7-7.2c-.3-.3-.6 0-.9 0l-4.3 1.6h-.2l-.7-2.4-3.1-13.3-3-12.7c0-.2-.3-.2-.4-.1-.7.4-1.3.7-2 .9l-.1-.2-.3-6.9c0-.1 0-.3.1-.2l1.8 3.5"/>
    <path clip-path="url(#b)" fill="none" stroke="#fff" stroke-width=".257" stroke-miterlimit="3.864"
          d="M61 72l1 2.1c.5.4.9-.3 1.4-.3l12.5 25.9c.3.4.7-.1 1.1-.1l2.9-1.8c.4-.3.8-.6 1.2-.6l4.6 7.3v.2l-1.4.9-3.6 1.9-2.4 1.1c-.5.1-1 .5-1.5.4l-2.7-7.2c-.3-.3-.6 0-.8 0l-4.3 1.6h-.2l-.7-2.4L65 87.7 62 75c0-.2-.3-.2-.4-.1-.7.4-1.3.7-2 .9l-.1-.2-.2-6.9c0-.1 0-.3.1-.2L61 72z"/>
    <path clip-path="url(#b)" fill="#fff"
          d="M55.8 76.7c.4.5 1.2-.2 1.3.5l3 28.3c0 .1.1.3.3.4l3-.5c.7-.1 1.4-.4 2.1-.4l.7 3.2.6 3.5c-.1.3-.6.2-.8.4l-5.4.7-3.3.1c-.4.1-.4-.4-.4-.6l-.1-5.4-.3-.2h-4.2c-.2-.1-.5.1-.6-.3l.4-3.9L55 77.6c.1-.3-.2-.5-.5-.4l-2-.1v-.5l2.4-7.8.4 4.3.5 3.6"/>
    <path clip-path="url(#b)" fill="none" stroke="#fff" stroke-width=".257" stroke-miterlimit="3.864"
          d="M55.8 76.8c.4.5 1.2-.2 1.3.5l3 28.1c0 .1.1.3.3.4l3-.5c.7-.1 1.4-.4 2.1-.4l.7 3.2.6 3.5c-.1.3-.6.2-.8.4l-5.4.7-3.3.1c-.4.1-.4-.4-.4-.6l-.1-5.4-.3-.2h-4.1c-.2-.1-.5.1-.6-.3l.4-3.9 2.7-24.7c.1-.3-.2-.5-.5-.4l-2-.1v-.5l2.4-7.8.4 4.3.6 3.6z"/>
    <path clip-path="url(#b)" fill="#FFF482"
          d="M66.9 1.1c.4.1.8.1 1.1.4L63.1 21c0 .2.2.3.4.3l3 .5c.3.2.8.1 1 .4l-.5 1.5-8.6 21.2v.1l.5-4.2.6-4.1 2.1-15.3-.3-.2-2.6-.2c-.3 0-.7.1-1-.1l.2-6.3.6-14.4.2-.2 3.7.3 4.5.8"/>
    <path clip-path="url(#b)" fill="none" stroke="#FFF482" stroke-width=".257" stroke-miterlimit="3.864"
          d="M66.8 1.2c.4.1.8.1 1.1.4L63.1 21c0 .2.2.3.4.3l2.9.5c.3.2.7.1 1 .4l-.5 1.6L58.5 45v.1l.4-4.2.6-4.1 2.1-15.3-.3-.2-2.5-.3c-.3 0-.7.1-1-.1l.2-6.3.6-14.4.2-.2 3.7.3 4.3.9z"/>
    <path clip-path="url(#b)" fill="#DBE283"
          d="M48.3 1.2l2.3 20.4c0 .1.1.2.2.3l3.2-.5h.5l.1.6-.6 21.3-.5-2-4.2-18.5c0-.3-.4-.3-.6-.3L46 23.8h-.2l-.9-2.4-4.5-13.1-1.9-5.6v-.3l1.9-.6L45 .7l2.7-.4c.7-.3.5.5.6.9"/>
    <path clip-path="url(#b)" fill="none" stroke="#DBE283" stroke-width=".257" stroke-miterlimit="3.864"
          d="M48.3 1.3l2.3 20.3c0 .1.1.2.2.3l3.2-.5h.5l.1.6-.6 21.3-.5-2-4.2-18.4c0-.3-.4-.3-.6-.3L46 23.7h-.2l-.9-2.4-4.4-13-1.9-5.6v-.3l1.9-.6L45 .7l2.6-.4c.8-.3.5.6.7 1z"/>
    <path clip-path="url(#b)" fill="#FFED00"
          d="M83.7 7.6l2.4 1.5c.3.1.1.4 0 .6L75.7 24.8v.3l3.5 2.2.3.3-.1.3-16.8 18.4-.2.2 1.7-3.3L74 24.6c.1-.2-.2-.4-.4-.5l-2.8-1.2-.1-.1.4-1.3 6.7-16.6c.4-.3.8.1 1.2.2l4.7 2.5"/>
    <path clip-path="url(#b)" fill="none" stroke="#FFED00" stroke-width=".257" stroke-miterlimit="3.864"
          d="M83.7 7.7l2.4 1.5c.3.1.1.4 0 .6l-10.4 15v.3l3.5 2.2.3.3-.1.3-16.8 18.4-.2.2 1.7-3.3L74 24.7c.1-.2-.2-.4-.4-.5L70.9 23l-.1-.1.4-1.3L77.9 5c.3-.3.8.2 1.1.3l4.7 2.4z"/>
    <path clip-path="url(#b)" fill="#94C356"
          d="M39.2 26.5c.2.4.4.9.8 1.3l.4-.1 2.8-1.9c.2 0 .3-.2.4-.1L50 44.9v.2l-2-2.9-8.7-13.1c-.1-.2-.4 0-.6.1L36.6 31h-.1l-6.7-8.4L21 11.9v-.2l1.7-1.4 4.2-2.8L29 6.4l.2.1 10 20"/>
    <path clip-path="url(#b)" fill="none" stroke="#94C356" stroke-width=".257" stroke-miterlimit="3.864"
          d="M39.2 26.4c.2.4.4.9.7 1.3l.4-.1 2.8-1.9c.2 0 .3-.2.4-.1l6.4 19v.2l-2-2.9-8.6-13c-.1-.2-.4 0-.6.1l-2.1 1.8h-.1l-6.7-8.3-8.6-10.6-.1-.1 1.7-1.4 4.1-2.8L29 6.5l.2.1 10 19.8z"/>
    <path clip-path="url(#b)" fill="#fd0"
          d="M97.9 19.4l2.8 3.5v.2L86.9 33.5v.3l2.3 3.2c.1.2.3.4.2.7l-2 1.1L70 47.4l-4.6 2.2 1.9-1.8L85 32.4c.3-.2.2-.5 0-.7l-2.3-2.2v-.3l12-13.2h.3l2.9 3.4"/>
    <path clip-path="url(#b)" fill="none" stroke="#fd0" stroke-width=".257" stroke-miterlimit="3.864"
          d="M97.9 19.5l2.8 3.5v.2L86.8 33.5v.3l2.3 3.1c.1.2.3.4.2.7l-2 1.1L70 47.3l-4.6 2.2 1.9-1.8L85 32.4c.3-.2.2-.5 0-.7l-2.3-2.2v-.3l11.9-13.1.3.1 3 3.3z"/>
    <path clip-path="url(#b)" fill="#009F5E"
          d="M32.5 36.3l2.4-3c.1 0 .2-.1.3-.1l11.4 14.3.1.2-1.3-.7-13.1-9.2c-.4-.2-.5.4-.7.5l-.9 2h-.2l-22.9-13c-.2-.1-.1-.4-.1-.5l2.2-3.3 3-3.9.7-.6 18.9 17.4.2-.1"/>
    <path clip-path="url(#b)" fill="none" stroke="#009F5E" stroke-width=".257" stroke-miterlimit="3.864"
          d="M32.4 36.2l2.4-3c.1 0 .2-.1.3-.1l11.3 14.2.1.2-1.3-.7-13-9.1c-.4-.2-.5.4-.7.5l-.9 2h-.2L7.7 27.4c-.2-.1-.1-.4-.1-.5l2.2-3.3 2.9-3.8.7-.6 18.8 17.3.2-.3z"/>
    <path clip-path="url(#b)" fill="#FBBA00"
          d="M107.4 35.2l1.6 4.7c.1.6.5 1.1.4 1.8l-3.1.9-12 3.1c-.2 0-.3.1-.4.3l1.2 4.2c.1.7-.8.4-1.2.6l-25.1 2.9c-.5 0-1.1.2-1.6.1l25.7-9.6c.1-.1.3-.1.3-.2l-1.4-2.9-.4-.8.5-.4 13.9-7.2c.1 0 .2-.1.3 0l1.3 2.5"/>
    <path clip-path="url(#b)" fill="none" stroke="#FBBA00" stroke-width=".257" stroke-miterlimit="3.864"
          d="M107.4 35.2l1.6 4.6c.1.6.5 1.1.4 1.7l-3.1.9-11.9 3c-.2 0-.3.1-.4.3l1.2 4.2c.1.7-.8.4-1.2.6l-24.9 2.9c-.5 0-1 .2-1.6.1L93 44c.1-.1.3-.1.3-.2l-1.4-2.9-.4-.8.5-.4 13.8-7.1c.1 0 .2-.1.3 0l1.3 2.6z"/>
    <path clip-path="url(#b)" fill="#88CDD3"
          d="M14.2 41.2l14.2 5.5c.2.1.4-.2.4-.3l.9-3.2c0-.2.1-.3.2-.4l1.7.9 12.5 7.5.1.1c-1.2-.1-2.4-.4-3.5-.7L28.8 48c-.2.1-.2.2-.3.4-.1.8-.1 1.6-.3 2.4l-13.8-2-13.9-2-.2-.1.7-3.5 1-3.9.8-2.3h.1l4 1.4 7.3 2.8"/>
    <path clip-path="url(#b)" fill="none" stroke="#88CDD3" stroke-width=".257" stroke-miterlimit="3.864"
          d="M14.2 41.3l14.1 5.4c.2.1.4-.2.4-.3l.9-3.2c0-.1.1-.3.2-.4l1.7.9L44 51.2l.1.1c-1.1-.1-2.4-.4-3.5-.7L28.8 48c-.2.1-.2.2-.3.4-.1.8-.1 1.6-.3 2.3l-13.8-2-13.9-2-.2-.1.6-3.4 1-3.8.8-2.4H3l4 1.4 7.2 2.9z"/>
    <path clip-path="url(#b)" fill="#F39200"
          d="M111.4 52.4l.1 3.6-.1 3.3-.2 2.4c-.4.4-.9 0-1.4.1l-12.4-1.6c-.2 0-.3.2-.3.4l-.3 3.4-.2 1.5H96l-27-6.8c-.4.5 0 1.3-.4 1.8l-.6-.3-1.8-1.2-.1-.1c.8-.3 1.8-.4 2.7-.6l.3-.5 27.3.4c.2 0 .3-.1.4-.3l-.2-3.1c0-.4-.1-.7-.1-1.1l8.8-.9 5.6-.6c.2 0 .5 0 .5.2"/>
    <path clip-path="url(#b)" fill="none" stroke="#F39200" stroke-width=".257" stroke-miterlimit="3.864"
          d="M111.3 52.5l.1 3.6-.1 3.3-.2 2.4c-.4.4-.9 0-1.4.1l-12.3-1.6c-.2 0-.3.2-.3.4L97 64l-.2 1.5h-.6l-26.8-6.8c-.4.5 0 1.3-.4 1.8l-.6-.3-2.1-1.2-.1-.1c.8-.3 1.8-.4 2.7-.6l.3-.5 27.2.4c.2 0 .3-.1.4-.3l-.2-3.1c0-.4-.1-.7-.1-1.1l8.7-.9 5.5-.5c.3 0 .6-.1.6.2z"/>
    <path clip-path="url(#b)" fill="#00AFCB"
          d="M43.2 55.7l-.4.2-11.6 2c-.5.2-1.3.1-1.7.5 0 .7.5 1.3.4 2l-3.1.8L8 65.6l-5.2 1.3c-.3.2-.2.6-.1.8l1.5 4.8c.1.2.1.4.2.6-.6.3-1.1.6-1.8.7l-.5-1.2-1.3-4.5-.7-3.7c-.4-1.1 1-.7 1.3-1.2l-.8-4.8c.1-.4-.3-1 .2-1.2h26.5c.4-.1 1.2.1 1.6-.2l-.4-3.7c0-.2 0-.3.1-.3l13.1 2.4 1.5.3"/>
    <path clip-path="url(#b)" fill="none" stroke="#00AFCB" stroke-width=".257" stroke-miterlimit="3.864"
          d="M43.2 55.7l-.4.2-11.6 2c-.5.2-1.3.1-1.7.5 0 .7.5 1.3.4 2l-3.1.8L8 65.6l-5.2 1.3c-.3.2-.2.6-.1.8l1.5 4.7c.1.2.1.4.2.6-.6.3-1.1.6-1.8.7l-.4-1.2L.9 68l-.7-3.7c-.4-1.1 1-.7 1.3-1.2l-.8-4.8c.1-.4-.3-1 .2-1.2h26.4c.4-.1 1.1.1 1.6-.2l-.4-3.6c0-.2 0-.3.1-.3l13 2.4 1.6.3z"/>
    <path clip-path="url(#b)" fill="#009FE3"
          d="M41 62l-7.2 4.2c-.3.2-.1.5 0 .7l.9 1.2-.5.5-5.3 3.7-17.7 12.4v.3l3.4 4.4c-.6.7-1.4 1.3-2.2 1.8l-.7-.6-2.6-3.5-2.3-3.8c-.1-.3-.4-.5-.2-.8.6-.5 1.4-.6 1.9-1.3l-.2-.6-2-3.6c0-.2-.2-.4-.1-.7l1.6-.8 24.7-9.8c.4-.2-.1-.5-.1-.8l-1.2-2.1v-.3l10.6-2.3c.8-.1 1.5-.4 2.3-.4L41 62"/>
    <path clip-path="url(#b)" fill="none" stroke="#009FE3" stroke-width=".257" stroke-miterlimit="3.864"
          d="M40.7 62l-7.2 4.2c-.3.2-.1.5 0 .7l.9 1.2-.5.5-5.2 3.7-17.5 12.4v.3l3.4 4.4c-.6.7-1.4 1.3-2.2 1.7l-.7-.6L9.1 87l-2.3-3.8c-.1-.3-.4-.5-.2-.8.6-.5 1.4-.6 1.9-1.3l-.2-.5L6.4 77c0-.2-.2-.4-.1-.7l1.6-.8 24.5-9.8c.4-.2-.1-.5-.1-.8L31.1 63v-.3l10.5-2.3c.8-.1 1.5-.4 2.3-.4l-3.2 2z"/>
    <path clip-path="url(#b)" fill="#E30613"
          d="M68.1 63.4c.3-.5.8-.1 1.2 0l25.5 10.1c.3 0 .4-.3.5-.5l.9-3.7.2-.7 1.3.3 11.2 3.1v.5l-1.4 3.8-1.7 3.8c-.4.4-.5 1.7-1.2 1.1l-9.8-5.1h-.3l-.7 1.5-1.2 2.7c-.2.2-.3.6-.6.7l-1.9-1.3L68.3 64h-.2c-.3.7-.7 1.3-1 2H67l-2.4-3.3v-.1c1.1.1 2.2.7 3.5.8"/>
    <path clip-path="url(#b)" fill="none" stroke="#E30613" stroke-width=".257" stroke-miterlimit="3.864"
          d="M68.2 63.5c.3-.5.8-.1 1.2 0l25.4 10c.3 0 .4-.3.5-.5l.9-3.7.2-.7 1.3.3 11.1 3.1v.5l-1.4 3.8-1.7 3.8c-.4.4-.5 1.7-1.2 1.1l-9.8-5.1h-.3l-.7 1.5-1.2 2.7c-.2.2-.3.6-.6.7L90 79.7 68.4 64.1h-.2c-.3.7-.7 1.3-1 2h-.1l-2.4-3.3v-.1c1.1.1 2.2.6 3.5.8z"/>
    <path clip-path="url(#b)" fill="#0075BF"
          d="M41.3 70.7l-1.4 1.9c0 .7.9.7 1.2 1.3l-4.8 6.9-11.8 16.6c.3.6 1 .9 1.5 1.3l3.1 1.9.1.1c-.6 1.1-1.2 2.2-1.9 3.1l-1.3-.6-3.5-2.3-3.2-2.6-.1-.1 2.1-2.5v-.2l-3.8-3.4c-.1-.2-.5-.3-.2-.6l21.3-19.1v-.2L36.5 70c0-.1-.1-.2-.1-.3l3.6-2.2 6.4-3.8c.1 0 .1-.1.2 0l-5.3 7"/>
    <path clip-path="url(#b)" fill="none" stroke="#0075BF" stroke-width=".257" stroke-miterlimit="3.864"
          d="M41.3 70.7l-1.4 1.9c0 .7.9.7 1.2 1.3l-4.7 6.8-11.8 16.7c.3.6 1 .9 1.5 1.3l3.1 1.9.1.1c-.5 1.1-1.2 2.2-1.9 3.1l-1.3-.6-3.5-2.3-3.2-2.6-.1-.1 2.1-2.5v-.2l-3.8-3.4c-.1-.2-.5-.3-.2-.5l21.2-19v-.2L36.5 70c0-.1-.1-.2-.1-.3l3.6-2.2 6.4-3.8c.1 0 .1-.1.2 0l-5.3 7z"/>
    <path clip-path="url(#b)" fill="#E6007E"
          d="M65.4 68.7c.2 0 .4-.2.6-.3l.6.3 4.1 3.7 16.9 15.3h.3l1.8-2.1c.5-.6.8-1.2 1.4-1.7l1.2.7 7.3 5.4.1.2-1.5 1.9-3.8 4c-.7.5-1 1.2-1.8 1.3l-2.9-3.3-3.3-3.8c-.1 0-.2-.1-.3-.1l-3.2 3.1c-.2.1-.3.5-.6.3l-3.5-5-12.9-19c-.1-.1-.2-.4-.5-.4-.6.6-1 1.3-1.7 1.7l-.9-2.1-1-3.1v-.1l2.3 1.9 1.3 1.2"/>
    <path clip-path="url(#b)" fill="none" stroke="#E6007E" stroke-width=".257" stroke-miterlimit="3.864"
          d="M65.4 68.8c.2 0 .4-.2.6-.3l.6.3 4.1 3.6 16.8 15.2h.3l1.7-2.1c.4-.6.8-1.2 1.3-1.7l1.2.7 7.3 5.3.1.2-1.5 1.9-3.8 4c-.7.5-1 1.2-1.8 1.3L89.4 94l-3.3-3.8c-.1 0-.2-.1-.3-.1l-3.1 3.1c-.2.1-.3.5-.6.3l-3.5-5-12.9-18.7c-.1-.1-.2-.4-.5-.4-.6.5-1 1.3-1.7 1.6l-.9-2.1-1-3.1v-.1l2.3 1.9 1.5 1.2z"/>
    <path clip-path="url(#b)" fill="#004F9F"
          d="M47.3 75.6c.3.3.8.2 1.2.5l-.1.7-7 27.6.4.3 3.8.6 1 .2-.1 1.3-.6 3.8c-.5.3-1.1.1-1.6 0l-4-.9-3.1-1c-.3-.1-.5-.3-.4-.6l1.4-3.9c0-.4-.4-.3-.6-.5l-3.7-1.2c-.2-.2-.5-.1-.8-.4l.5-1.1 12.5-25c0-.6-.7-.5-1.2-.7-.5-.1-.9-.3-1.3-.5l.1-.3 5.9-7.8c.2-.1.2-.3.3-.3l-2.6 9.2"/>
    <path clip-path="url(#b)" fill="none" stroke="#004F9F" stroke-width=".257" stroke-miterlimit="3.864"
          d="M47.2 75.6c.3.3.8.2 1.2.5l-.1.7-6.9 27.6.4.3 3.7.6 1 .2-.1 1.3-.6 3.8c-.5.3-1.1.1-1.6 0l-4-.9-3.1-1c-.3-.1-.5-.3-.4-.6l1.4-3.9c0-.4-.4-.3-.6-.5l-3.7-1.2c-.2-.2-.5-.1-.7-.4l.5-1.1L46 75.9c0-.6-.7-.5-1.1-.7-.5-.1-.9-.3-1.3-.5l.1-.3 5.8-7.8c.2-.1.2-.3.3-.3l-2.6 9.3z"/>
    <path clip-path="url(#b)" fill="#DD6CA6"
          d="M59.8 70.8l1 2.1c.5.4.9-.3 1.4-.3l12.5 25.9c.3.4.7-.1 1.1-.1l2.9-1.8c.4-.3.8-.6 1.2-.6l4.6 7.3v.2l-1.4.9-3.6 1.9-2.4 1.1c-.5.1-1 .5-1.5.4l-2.7-7.2c-.3-.3-.6 0-.9 0l-4.3 1.6h-.2l-.7-2.4-3.1-13.3-3-12.7c0-.2-.3-.2-.4-.1-.7.4-1.3.7-2 .9l-.1-.2-.2-6.9c0-.1 0-.3.1-.2l1.7 3.5"/>
    <path clip-path="url(#b)" fill="none" stroke="#DD6CA6" stroke-width=".257" stroke-miterlimit="3.864"
          d="M59.8 70.9l1 2.1c.5.4.9-.3 1.4-.3l12.5 25.9c.3.4.7-.1 1.1-.1l2.9-1.8c.4-.3.8-.6 1.2-.6l4.6 7.3v.2l-1.4.9-3.6 1.9-2.4 1.1c-.5.1-1 .5-1.5.4l-2.7-7.2c-.3-.3-.6 0-.8 0l-4.3 1.6h-.2l-.7-2.4-3.1-13.3-3-12.7c0-.2-.3-.2-.4-.1-.7.4-1.3.7-2 .9l-.1-.2-.3-7c0-.1 0-.3.1-.2l1.7 3.6z"/>
    <path clip-path="url(#b)" fill="#BC90C1"
          d="M54.6 75.5c.4.5 1.2-.2 1.3.5l3 28.3c0 .1.1.3.3.4l3-.5c.7-.1 1.4-.4 2.1-.4l.7 3.2.6 3.5c-.1.3-.6.2-.8.4l-5.4.7-3.3.1c-.4.1-.4-.4-.4-.6l-.1-5.4-.3-.2h-4.2c-.2-.1-.5.1-.6-.3l.4-3.9 2.8-24.8c.1-.3-.2-.5-.5-.4l-2-.1v-.5l2.4-7.8.4 4.3.6 3.5"/>
    <path clip-path="url(#b)" fill="none" stroke="#BC90C1" stroke-width=".257" stroke-miterlimit="3.864"
          d="M54.6 75.6c.4.5 1.2-.2 1.3.5l3 28.1c0 .1.1.3.3.4l3-.5c.7-.1 1.4-.4 2.1-.4l.7 3.2.6 3.5c-.1.3-.6.2-.8.4l-5.4.7-3.3.1c-.4.1-.4-.4-.4-.6l-.1-5.4-.3-.2h-4.1c-.2-.1-.5.1-.6-.3l.4-3.9 2.7-24.7c.1-.3-.2-.5-.5-.4l-2-.1v-.5l2.4-7.7.4 4.3.6 3.5z"/>
</svg>