<svg xmlns="http://www.w3.org/2000/svg" viewBox="0 0 375.24 78.52"><defs><style>.cls-1{fill:none;stroke:blue;stroke-miterlimit:10;}.cls-2{fill:gray;}.cls-3{fill:#e6e6e6;}.cls-4{fill:#f2f2f2;}</style></defs><title>Element 6</title><g id="Ebene_2" data-name="Ebene 2"><g id="Ebene_1-2" data-name="Ebene 1"><path class="cls-1" d="M29.67,1.44"/><path class="cls-2" d="M3,5.53S-8.32,63.48,29.36,77c34-13.92,29.79-71,29.79-71A93.64,93.64,0,0,0,3,5.53Z"/><path class="cls-3" d="M29.39,78.52l-.52-.19c-16-5.72-25.71-20.24-28.22-42a112.26,112.26,0,0,1,1-31.1l.17-.84.82-.25a95.07,95.07,0,0,1,57,.42l.92.3.07,1a126.25,126.25,0,0,1-2.18,30.69C54.12,58,44.26,72.43,29.9,78.32ZM4.31,6.65a112.28,112.28,0,0,0-.8,29.44c1.07,9.18,3.46,17,7.1,23.34a35.64,35.64,0,0,0,18.71,16c7.22-3.09,13.2-8.52,17.78-16.15A73.11,73.11,0,0,0,55.58,36,127.28,127.28,0,0,0,57.77,7,92.2,92.2,0,0,0,4.31,6.65Z"/><path class="cls-4" d="M27.92,32c0,26.86-6.55,30.66-3.69,30.66s5.12-2.92,5.12-2.92,2.46,2.92,5.32,2.92S31,58.86,31,32c18.93,0,20.59,6.53,20.59,3.67a8.51,8.51,0,0,0-2.06-5.12,9.46,9.46,0,0,0,2.06-5.32C51.58,22.35,50,28.9,31,28.9,31,10,37.58,8.73,34.71,8.73a8.51,8.51,0,0,0-5.12,2.06,9.46,9.46,0,0,0-5.32-2.06C21.4,8.73,28,10,28,28.9,9,28.9,7.75,22.35,7.75,25.22a8.51,8.51,0,0,0,2.06,5.12,9.46,9.46,0,0,0-2.06,5.32C7.75,38.53,8.93,32,27.86,32Z"/><path class="cls-2" d="M106.69,62.66H77V12.26H87v42h19.65Z"/><path class="cls-2" d="M108,44.66q0-9.57,4.15-14.26t11.58-4.68q8,0,11.9,4.75t3.91,14.18q0,9.65-4.15,14.29t-11.66,4.64Q108,63.59,108,44.66Zm9.83,0A20.53,20.53,0,0,0,119.16,53a4.67,4.67,0,0,0,4.55,3,4.87,4.87,0,0,0,4.51-2.56q1.48-2.55,1.48-8.75,0-5.54-1.36-8.42a4.74,4.74,0,0,0-4.63-2.88,4.85,4.85,0,0,0-4.35,2.56Q117.8,38.47,117.8,44.66Z"/><path class="cls-2" d="M142.64,26.66H147V19.89l9.51-2.66v9.43h7.75v7.63h-7.75V50a10.18,10.18,0,0,0,.68,4.39,2.5,2.5,0,0,0,2.44,1.3,9.8,9.8,0,0,0,2.16-.22,14.83,14.83,0,0,0,2.08-.65l1.2,6.84A22.24,22.24,0,0,1,161,63a21.44,21.44,0,0,1-4.87.54q-4.55,0-6.83-2.38t-2.28-8V34.29h-4.39Z"/><path class="cls-2" d="M166.2,26.66h4.39V19.89l9.51-2.66v9.43h7.75v7.63H180.1V50a10.18,10.18,0,0,0,.68,4.39,2.5,2.5,0,0,0,2.44,1.3,9.8,9.8,0,0,0,2.16-.22,14.83,14.83,0,0,0,2.08-.65l1.2,6.84A22.24,22.24,0,0,1,184.58,63a21.44,21.44,0,0,1-4.87.54q-4.55,0-6.83-2.38t-2.28-8V34.29H166.2Z"/><path class="cls-2" d="M191.92,44.66q0-9.57,4.15-14.26t11.58-4.68q8,0,11.9,4.75t3.91,14.18q0,9.65-4.15,14.29t-11.66,4.64Q191.92,63.59,191.92,44.66Zm9.83,0A20.53,20.53,0,0,0,203.11,53a4.67,4.67,0,0,0,4.55,3,4.87,4.87,0,0,0,4.51-2.56q1.48-2.55,1.48-8.75,0-5.54-1.36-8.42a4.74,4.74,0,0,0-4.63-2.88,4.85,4.85,0,0,0-4.35,2.56Q201.75,38.47,201.75,44.66Z"/><path class="cls-2" d="M248.56,35.15A11.07,11.07,0,0,0,245,34.5a6.36,6.36,0,0,0-3.71,1.08,5.35,5.35,0,0,0-2.12,3v24h-9.51v-36H237L238.09,31h.32a8.45,8.45,0,0,1,3-3.71,7.83,7.83,0,0,1,4.51-1.33,10.22,10.22,0,0,1,3.75.72Z"/><path class="cls-2" d="M253.67,16.5a4.64,4.64,0,0,1,1.52-3.56,6.12,6.12,0,0,1,4.31-1.4A6.87,6.87,0,0,1,264,12.91a4.42,4.42,0,0,1,1.68,3.6A4.22,4.22,0,0,1,264,20a7.13,7.13,0,0,1-4.47,1.3A6.33,6.33,0,0,1,255.19,20,4.42,4.42,0,0,1,253.67,16.5Zm1,10.15h9.51v36h-9.51Z"/><path class="cls-2" d="M269.57,26.66H274V19.89l9.51-2.66v9.43h7.75v7.63h-7.75V50a10.18,10.18,0,0,0,.68,4.39,2.5,2.5,0,0,0,2.44,1.3,9.8,9.8,0,0,0,2.16-.22,14.83,14.83,0,0,0,2.08-.65l1.2,6.84A22.24,22.24,0,0,1,287.94,63a21.44,21.44,0,0,1-4.87.54q-4.55,0-6.83-2.38t-2.28-8V34.29h-4.39Z"/><path class="cls-2" d="M293.13,26.66h4.39V19.89L307,17.23v9.43h7.75v7.63H307V50a10.18,10.18,0,0,0,.68,4.39,2.5,2.5,0,0,0,2.44,1.3,9.8,9.8,0,0,0,2.16-.22,14.83,14.83,0,0,0,2.08-.65l1.2,6.84A22.24,22.24,0,0,1,311.5,63a21.44,21.44,0,0,1-4.87.54q-4.55,0-6.83-2.38t-2.28-8V34.29h-4.39Z"/><path class="cls-2" d="M347.29,60a15.91,15.91,0,0,1-5.43,2.59,25.41,25.41,0,0,1-7.19,1,17.93,17.93,0,0,1-7.15-1.3,12.34,12.34,0,0,1-4.91-3.74,16.17,16.17,0,0,1-2.83-5.94,31.31,31.31,0,0,1-.92-8q0-9.72,4.27-14.36T335,25.65a18,18,0,0,1,5,.68,11.16,11.16,0,0,1,4.27,2.3,11.66,11.66,0,0,1,3,4.32,17.35,17.35,0,0,1,1.16,6.8,30.85,30.85,0,0,1-.2,3.38q-.2,1.8-.6,3.89H328.2a11.33,11.33,0,0,0,2.08,6.84q1.92,2.38,6.15,2.38a14.42,14.42,0,0,0,4.67-.72A12.92,12.92,0,0,0,344.33,54ZM334.82,33a5.16,5.16,0,0,0-4.55,2.2,12,12,0,0,0-1.76,6.16h11a11.53,11.53,0,0,0-1-6.23A4,4,0,0,0,334.82,33Z"/><path class="cls-2" d="M374.13,35.15a11.07,11.07,0,0,0-3.51-.65,6.36,6.36,0,0,0-3.71,1.08,5.35,5.35,0,0,0-2.12,3v24h-9.51v-36h7.27L363.66,31H364a8.45,8.45,0,0,1,3-3.71,7.83,7.83,0,0,1,4.51-1.33,10.22,10.22,0,0,1,3.75.72Z"/></g></g></svg>