<?xml version="1.0" encoding="UTF-8" standalone="no"?>
<svg width="447px" height="130px" viewBox="0 0 447 130" version="1.1" xmlns="http://www.w3.org/2000/svg" xmlns:xlink="http://www.w3.org/1999/xlink" xmlns:sketch="http://www.bohemiancoding.com/sketch/ns">
    <!-- Generator: Sketch 3.3.2 (12043) - http://www.bohemiancoding.com/sketch -->
    <defs></defs>
    <g id="Page-1" stroke="none" stroke-width="1" fill="none" fill-rule="evenodd" sketch:type="MSPage">
        <path d="M121.333333,4.59948491 L200.633333,4.59948491 L195.866667,29.7328182 L162.933333,29.7328182 L159.033333,50.0994849 L191.966667,50.0994849 L187.2,75.2328182 L154.266667,75.2328182 L150.366667,95.1661516 L183.3,95.1661516 L178.533333,120.299485 L115.7,120.299485 L135.2,20.1994849 L121.333333,4.59948491 L121.333333,4.59948491 Z M427.7,93.8661516 C407.333333,122.032818 368.333333,133.732818 342.766667,117.266152 C318.066667,101.232818 313.733333,60.4994849 334.1,32.3328182 C354.466667,4.16615157 394.333333,-9.70051509 421.2,7.63281824 C447.2,24.0994849 447.633333,65.6994849 427.7,93.8661516 L427.7,93.8661516 Z M400.833333,33.6328182 C387.4,24.5328182 367.466667,31.8994849 357.5,46.6328182 C347.533333,61.3661516 349.7,82.5994849 361.833333,90.8328182 C374.4,99.4994849 393.9,93.4328182 404.3,78.6994849 C414.266667,63.9661516 413.833333,42.2994849 400.833333,33.6328182 L400.833333,33.6328182 Z M5.63333333,4.59948491 L19.5,19.7661516 L0,119.866152 L29.4666667,119.866152 L40.7333333,61.7994849 L69.3333333,119.866152 L104,119.866152 L73.6666667,60.9328182 L115.7,4.59948491 L81.4666667,4.59948491 L41.1666667,60.0661516 L52,4.59948491 L5.63333333,4.59948491 L5.63333333,4.59948491 Z M223.166667,0.266151573 L199.766667,119.866152 L228.8,119.866152 L239.2,64.8328182 L295.533333,125.499485 L318.933333,5.03281824 L273.433333,5.03281824 L287.3,20.1994849 L279.5,61.3661516 L223.166667,0.266151573 L223.166667,0.266151573 Z" id="Imported-Layers" fill="#8c1d82" sketch:type="MSShapeGroup"></path>
    </g>
</svg>