<svg xmlns="http://www.w3.org/2000/svg" viewBox="0 0 70.13 90.62"><defs><style>.cls-1{fill:none;stroke:blue;stroke-miterlimit:10;}.cls-2{fill:#ccc;}.cls-3{fill:#e6e6e6;}.cls-4{fill:#f2f2f2;}</style></defs><title>logo_shield_light</title><g id="Ebene_2" data-name="Ebene 2"><g id="Ebene_1-2" data-name="Ebene 1"><path class="cls-1" d="M34.22,1.69"/><path class="cls-2" d="M3.45,6.41S-9.61,73.26,33.86,88.86C73.09,72.8,68.23,7,68.23,7A108,108,0,0,0,3.45,6.41Z"/><path class="cls-3" d="M33.9,90.62l-.6-.22C14.84,83.8,3.63,67,.74,41.94A129.51,129.51,0,0,1,1.89,6.06l.2-1L3,4.81a109.68,109.68,0,0,1,65.76.48l1.06.35.08,1.15A145.65,145.65,0,0,1,67.42,42.2c-5,24.75-16.37,41.39-32.94,48.19ZM5,7.7a129.53,129.53,0,0,0-.92,34c1.23,10.59,4,19.61,8.19,26.93A41.12,41.12,0,0,0,33.82,87.05C42.14,83.49,49,77.22,54.33,68.42a84.35,84.35,0,0,0,9.78-26.86A146.84,146.84,0,0,0,66.64,8.1,106.37,106.37,0,0,0,5,7.7Z"/><path class="cls-4" d="M32.2,36.95c0,31-7.56,35.37-4.26,35.37s5.91-3.37,5.91-3.37,2.84,3.37,6.14,3.37-4.23-4.38-4.23-35.37c21.84,0,23.75,7.53,23.75,4.23a9.82,9.82,0,0,0-2.38-5.91,10.91,10.91,0,0,0,2.38-6.14c0-3.32-1.83,4.23-23.75,4.23,0-21.8,7.59-23.27,4.28-23.27a9.82,9.82,0,0,0-5.91,2.38A10.91,10.91,0,0,0,28,10.1c-3.31,0,4.3,1.47,4.3,23.27-21.92,0-23.36-7.56-23.36-4.25A9.82,9.82,0,0,0,11.31,35a10.91,10.91,0,0,0-2.38,6.14c0,3.31,1.36-4.22,23.2-4.22Z"/></g></g></svg>