<?xml version="1.0" encoding="UTF-8" standalone="no"?>
<svg width="60px" height="18px" viewBox="0 0 60 18" version="1.1" xmlns="http://www.w3.org/2000/svg" xmlns:xlink="http://www.w3.org/1999/xlink" xmlns:sketch="http://www.bohemiancoding.com/sketch/ns">
    <!-- Generator: Sketch 3.3.2 (12043) - http://www.bohemiancoding.com/sketch -->
    <defs></defs>
    <g id="Page-1" stroke="none" stroke-width="1" fill="none" fill-rule="evenodd" sketch:type="MSPage">
        <path d="M10.78,7.75556637 C11.69,5.94184223 13.09,4.19787671 14.7,3.29101464 C15.75,2.66318706 16.87,3.01198016 17.15,4.40715257 C17.36,5.52329051 17.36,6.36039395 16.59,6.8487043 C15.33,7.61604913 13.09,7.89508361 10.78,7.75556637 L10.78,7.75556637 Z M10.08,7.68580775 C11.34,5.38377326 11.83,2.87246292 11.76,1.05873878 C11.69,0.151876712 11.2,-0.0573991498 10.43,0.0123594709 C7.91,0.291393954 4.83,1.82608361 3.71,3.70956637 C3.36,4.19787671 3.22,4.89546292 3.71,5.45353188 C4.83,6.56966982 7.42,7.40677326 10.08,7.68580775 L10.08,7.68580775 Z M9.73,8.24387671 C7.21,7.89508361 4.48,7.82532499 2.87,8.03460085 C0.35,8.38339395 0,9.70880775 0,11.3830146 C0,12.8479457 0.56,14.1733595 2.45,13.7548077 C5.88,13.0572215 8.26,10.7551871 9.73,8.24387671 L9.73,8.24387671 Z M10.5,8.31363533 C9.73,9.98784223 9.31,11.7318077 9.38,12.9177043 C9.38,13.4060146 9.59,13.8245664 10.29,13.7548077 C11.69,13.6152905 14.07,12.5689112 14.98,11.2434974 C15.33,10.6854284 15.4,10.2668767 14.91,9.77856637 C14.28,9.15073878 12.53,8.66242844 10.5,8.31363533 L10.5,8.31363533 Z M9.1,10.6156698 L8.54,10.9644629 C7.98,12.2201181 6.09,16.0568422 4.27,16.1963595 L5.04,17.0334629 C6.3,16.6149112 7.98,13.336256 9.1,10.6156698 L9.1,10.6156698 Z M23.52,5.87208361 C23.66,5.59304913 24.36,5.1744974 25.13,5.1744974 C27.79,5.1744974 28.14,7.40677326 28.14,8.80194568 C28.14,11.8015664 26.95,13.1967388 24.92,13.1967388 C24.43,13.1967388 24.08,13.1269802 23.73,12.9177043 C23.8,13.1269802 23.87,13.4757733 23.87,14.1036009 L23.87,15.6382905 L21.28,16.3358767 L21.28,8.10435947 C21.28,7.1974974 21.21,6.36039395 21.07,5.52329051 L23.45,5.10473878 C23.45,5.38377326 23.52,5.66280775 23.52,5.87208361 L23.52,5.87208361 Z M24.57,7.1974974 C24.15,7.1974974 23.87,7.40677326 23.8,7.61604913 L23.8,11.0342215 C23.8,11.1737388 24.01,11.2434974 24.29,11.2434974 C24.92,11.2434974 25.34,11.1039802 25.34,9.08098016 C25.34,7.82532499 25.27,7.1974974 24.57,7.1974974 L24.57,7.1974974 Z M33.25,12.9874629 C32.9,13.1269802 32.27,13.1967388 31.57,13.1967388 C29.4,13.1967388 29.33,12.0806009 29.33,10.5459112 L29.33,5.31401464 C29.33,4.33739395 29.33,3.1514974 29.26,2.52366982 L31.78,2.10511809 C31.85,2.59342844 31.92,3.22125602 31.92,3.98860085 L31.92,9.63904913 C31.92,10.9644629 31.99,11.313256 32.55,11.313256 C32.62,11.313256 32.76,11.313256 32.83,11.2434974 L33.25,12.9874629 L33.25,12.9874629 Z M40.81,10.6854284 C40.81,11.4527733 40.95,12.0108422 41.23,12.429394 L38.99,13.1967388 C38.78,12.9874629 38.71,12.6386698 38.64,12.4991526 C38.22,12.9177043 37.52,13.1967388 36.75,13.1967388 C35.35,13.1967388 34.58,12.7084284 34.37,11.871325 C34.23,11.4527733 34.23,11.0342215 34.23,10.0576009 L34.23,5.59304913 L36.82,5.1744974 L36.82,10.6854284 C36.82,11.1737388 37.03,11.2434974 37.52,11.2434974 C37.8,11.2434974 38.08,11.1039802 38.29,10.8249457 L38.29,5.52329051 L40.88,5.10473878 L40.88,10.6854284 L40.81,10.6854284 L40.81,10.6854284 Z M48.79,10.4761526 C48.79,12.1503595 47.39,13.1967388 45.22,13.1967388 C44.1,13.1967388 43.05,12.8479457 41.93,12.2201181 L42.84,10.3366353 C43.33,10.6156698 44.59,11.313256 45.36,11.313256 C45.85,11.313256 46.13,11.0342215 46.13,10.7551871 C46.13,10.3366353 45.85,10.1971181 45.15,10.0576009 L44.17,9.84832499 C42.91,9.56929051 42.35,8.8717043 42.35,7.75556637 C42.35,6.22087671 43.61,5.1744974 45.5,5.1744974 C47.04,5.1744974 47.81,5.66280775 48.51,5.94184223 L47.74,7.54629051 C46.97,7.12773878 46.34,6.98822154 45.85,6.98822154 C45.43,6.98822154 45.15,7.1974974 45.15,7.40677326 C45.15,7.68580775 45.36,7.89508361 45.92,8.03460085 L46.9,8.24387671 C48.23,8.5229112 48.79,9.29025602 48.79,10.4761526 L48.79,10.4761526 Z M58.52,9.2204974 C58.52,7.54629051 57.26,6.29063533 55.65,6.29063533 C55.3,6.29063533 55.16,6.29063533 54.95,6.36039395 L55.09,4.96522154 L57.82,4.96522154 L58.24,2.73294568 L52.71,2.73294568 L52.29,8.59266982 C52.99,8.38339395 53.48,8.31363533 54.25,8.31363533 C55.3,8.31363533 55.79,8.73218706 55.79,9.49953188 C55.79,10.6156698 54.88,11.313256 53.48,11.313256 C52.92,11.313256 52.29,11.2434974 51.87,11.1737388 L52.43,13.1967388 C52.78,13.2664974 53.06,13.2664974 53.55,13.2664974 C56.63,13.1967388 58.52,11.4527733 58.52,9.2204974 L58.52,9.2204974 Z" id="Imported-Layers" fill="#656565" sketch:type="MSShapeGroup"></path>
    </g>
</svg>