<svg xmlns="http://www.w3.org/2000/svg" width="69.6" height="17.1" viewBox="0 0 69.6 17.1"
     enable-background="new 0 0 69.6 17.1">
    <path fill="#0D93D2"
          d="M10.8 7.8c.9-1.8 2.3-3.6 3.9-4.5 1-.6 2.2-.3 2.5 1.1.2 1.1.2 1.9-.6 2.4-1.3.9-3.5 1.1-5.8 1M10 7.7c-2.6-.3-5.2-1.1-6.3-2.2-.5-.5-.3-1.2 0-1.8C4.8 1.9 7.9.3 10.4 0c.8-.1 1.3.1 1.4 1 0 1.9-.5 4.4-1.8 6.7M9.7 8.3c-1.5 2.6-3.9 4.8-7.3 5.5-1.8.4-2.4-.9-2.4-2.4 0-1.6.4-3 2.9-3.3 1.6-.3 4.3-.2 6.8.2M10.5 8.4c2 .3 3.8.8 4.4 1.5.5.5.4.9.1 1.5-.9 1.3-3.3 2.3-4.7 2.5-.7.1-.9-.3-.9-.8-.1-1.3.3-3 1.1-4.7M9.1 10.6C8 13.3 6.3 16.6 5 17l-.8-.8c1.8-.1 3.7-4 4.3-5.2l.6-.4M28.7 9.7c0-2-1.6-2.5-2.6-2.8l-1-.3c-.7-.2-1-.5-1-.8 0-.4.4-.7 1-.7.7 0 1.6.3 2.3.7L28.6 4c-.9-.6-2.2-1-3.6-1-2.2 0-3.9 1.3-3.9 3.3 0 1.7 1 2.5 2.4 2.9l1.2.3c.7.2 1 .4 1 .8 0 .5-.4.9-1.4.9-1 0-2.1-.4-2.8-.8l-.9 2c1 .5 2.2.9 3.7.9 2.6.1 4.4-1.2 4.4-3.6M36.7 9.1c0-1.4-.3-3.5-2.9-3.5-.7 0-1.4.4-1.6.7 0-.2-.1-.5-.2-.7l-2.3.4c.2.8.3 1.6.3 2.5v8l2.5-.7v-1.5c0-.6 0-.9-.1-1.1.3.1.7.2 1.2.2 1.9 0 3.1-1.4 3.1-4.3m-2.7.2c0 2-.5 2.1-1.1 2.1-.2 0-.4-.1-.5-.2V7.9c.1-.2.4-.4.8-.4.7 0 .8.6.8 1.8M40.6 3.8c0-.8-.6-1.4-1.4-1.4-.8 0-1.5.6-1.5 1.4s.6 1.4 1.4 1.4c.8 0 1.5-.6 1.5-1.4"/>
    <path fill="#0D93D2"
          d="M40.4 13.2V5.6l-2.5.3v7.3zM48.3 10.3v-.7c0-2.6-1-4.1-3.4-4.1-2.1 0-3.4 1.5-3.4 3.9s1.3 3.9 3.7 3.9c1.1 0 2-.3 3-1.1l-1-1.4c-.6.5-1.3.7-2 .7-1 0-1.2-.9-1.2-1.4l4.3.2zm-2.4-1.7h-1.7c0-1 .3-1.3.9-1.3.6 0 .8.5.8 1.3M53.3 13.1l-.4-1.6h-.3c-.6 0-.6-.3-.6-1.7V4.5c0-.8 0-1.4-.1-1.9l-2.5.4c.1.6.1 1.7.1 2.7v5.1c0 1.5 0 2.6 2.2 2.6.7 0 1.2-.1 1.6-.3M62.9 3.1h-6.1l-.3 2.2h3.4c-.8 1.4-2.6 4.3-3 8.4l2.7-.6c0-3.4 2.7-7.4 3-7.9l.3-2.1M69.6 3.1h-6.1l-.3 2.2h3.4c-.9 1.4-2.6 4.3-3 8.4l2.7-.6c0-3.4 2.7-7.4 3-7.9l.3-2.1"/>
</svg>