<svg xmlns="http://www.w3.org/2000/svg" xmlns:xlink="http://www.w3.org/1999/xlink" width="72" height="18"
     viewBox="0 0 72 18" enable-background="new 0 0 72 18">
    <defs>
        <path id="a" d="M0 0h71.9v17.9H0z"/>
    </defs>
    <clipPath id="b">
        <use xlink:href="#a" overflow="visible"/>
    </clipPath>
    <path clip-path="url(#b)" fill="#C30061"
          d="M10.5 8.8c.9-1.8 2.2-3.5 3.8-4.4 1-.6 2.1-.3 2.4 1.1.2 1.1.2 1.9-.5 2.4-1.2.8-3.4 1.1-5.7.9"/>
    <defs>
        <path id="c" d="M0 0h71.9v17.9H0z"/>
    </defs>
    <clipPath id="d">
        <use xlink:href="#c" overflow="visible"/>
    </clipPath>
    <path clip-path="url(#d)" fill="#C30061"
          d="M9.8 8.8c-2.6-.3-5.1-1.1-6.2-2.2-.6-.5-.4-1.2 0-1.7 1.1-1.8 4.1-3.3 6.6-3.6.8-.1 1.3.1 1.3 1 .1 1.7-.5 4.2-1.7 6.5"/>
    <defs>
        <path id="e" d="M0 0h71.9v17.9H0z"/>
    </defs>
    <clipPath id="f">
        <use xlink:href="#e" overflow="visible"/>
    </clipPath>
    <path clip-path="url(#f)" fill="#C30061"
          d="M9.5 9.3C8 11.8 5.7 14 2.4 14.7c-1.8.4-2.4-.9-2.4-2.3 0-1.6.4-2.9 2.8-3.3 1.6-.2 4.3-.1 6.7.2"/>
    <defs>
        <path id="g" d="M0 0h71.9v17.9H0z"/>
    </defs>
    <clipPath id="h">
        <use xlink:href="#g" overflow="visible"/>
    </clipPath>
    <path clip-path="url(#h)" fill="#C30061"
          d="M10.2 9.4c2 .3 3.7.8 4.3 1.5.5.5.4.9.1 1.4-.9 1.3-3.2 2.3-4.6 2.4-.7.1-.9-.3-.9-.8 0-1.1.4-2.8 1.1-4.5"/>
    <defs>
        <path id="i" d="M0 0h71.9v17.9H0z"/>
    </defs>
    <clipPath id="j">
        <use xlink:href="#i" overflow="visible"/>
    </clipPath>
    <path clip-path="url(#j)" fill="#C30061" d="M8.9 11.6c-1.1 2.6-2.7 5.9-4 6.3l-.8-.8c1.8-.1 3.7-3.9 4.2-5.1l.6-.4"/>
    <defs>
        <path id="k" d="M0 0h71.9v17.9H0z"/>
    </defs>
    <clipPath id="l">
        <use xlink:href="#k" overflow="visible"/>
    </clipPath>
    <path clip-path="url(#l)" fill="#C30061"
          d="M23.8 4.2c-1.9 0-3.1 1.1-3.1 2.8 0 .6.2 1.2.6 1.6.4.4.8.6 1.7.8l1 .3c1.2.4 1.7.9 1.7 1.8 0 .6-.2 1-.7 1.4-.4.3-.8.4-1.5.4-1 0-1.8-.3-2.6-.8l-.5.9c1 .6 1.9.9 3.1.9.9 0 1.5-.2 2.2-.6.9-.6 1.3-1.4 1.3-2.3 0-.6-.2-1.3-.6-1.7-.4-.4-.8-.7-1.7-1l-1.1-.4c-1.1-.4-1.6-.8-1.6-1.6 0-1 .7-1.6 1.9-1.6.8 0 1.4.2 2.4.8l.5-.8c-1-.6-2-.9-3-.9"/>
    <defs>
        <path id="m" d="M0 0h71.9v17.9H0z"/>
    </defs>
    <clipPath id="n">
        <use xlink:href="#m" overflow="visible"/>
    </clipPath>
    <path clip-path="url(#n)" fill="#C30061"
          d="M29.2 11.4c0 .4 0 1 .3 1.5.5 1 1.4 1.4 2.9 1.4 1.2 0 1.9-.2 2.5-.7.6-.5.7-1 .7-2.2v-7h-1.1v6.7c0 .6 0 1.1-.4 1.5-.3.4-.9.6-1.7.6-1.2 0-1.7-.5-1.9-.9-.1-.3-.2-.9-.2-1.4V4.4h-1.1v7"/>
    <defs>
        <path id="o" d="M0 0h71.9v17.9H0z"/>
    </defs>
    <clipPath id="p">
        <use xlink:href="#o" overflow="visible"/>
    </clipPath>
    <path clip-path="url(#p)" fill="#C30061"
          d="M44.2 7.2c0-1-.4-1.8-1.2-2.3-.5-.3-1.1-.5-2.1-.5h-2.7v9.7h1.1v-3.8H41c1 0 1.7-.2 2.3-.8.7-.6.9-1.3.9-2.3m-1.3.2c0 .5-.2 1-.5 1.4-.3.4-.7.5-1.5.5h-1.6V5.4h1.2c.9 0 1.4.1 1.8.5.4.3.6.8.6 1.5"/>
    <defs>
        <path id="q" d="M0 0h71.9v17.9H0z"/>
    </defs>
    <clipPath id="r">
        <use xlink:href="#q" overflow="visible"/>
    </clipPath>
    <path clip-path="url(#r)" fill="#C30061" d="M45.8 14.1h5.5v-1H47V9.6h3.3v-1H47V5.4h4l.1-1h-5.3z"/>
    <defs>
        <path id="s" d="M0 0h71.9v17.9H0z"/>
    </defs>
    <clipPath id="t">
        <use xlink:href="#s" overflow="visible"/>
    </clipPath>
    <path clip-path="url(#t)" fill="#C30061"
          d="M59.2 7.1c0-1-.5-1.7-1-2-.5-.4-1.1-.6-2.4-.6h-2.3v9.7h1.2V9.7c.5 0 .7.1 1.1.6 1.3 1.6 2.2 3.1 2.5 3.7h1.5l-2.2-3.3c-.2-.3-.5-.7-1-1.1h.1c1.4.1 2.5-.9 2.5-2.5m-1.2 0c0 .6-.2 1.2-.5 1.5-.4.3-.9.4-1.8.4h-1V5.4h1.1c.5 0 .9.1 1.2.2.6.2 1 .8 1 1.5"/>
    <defs>
        <path id="u" d="M0 0h71.9v17.9H0z"/>
    </defs>
    <clipPath id="v">
        <use xlink:href="#u" overflow="visible"/>
    </clipPath>
    <path clip-path="url(#v)" fill="#C30061"
          d="M67.8 5.6c-1 0-1.5.2-1.8.4.6-1.8 2.1-2.7 4.6-3.6L70 0c-5.6 1.5-8.1 5.1-8.1 9.1 0 3.3 1.9 5.2 5.2 5.2 2.8 0 4.8-1.9 4.8-4.5 0-2.5-1.5-4.2-4.1-4.2m-.6 2.7c.9 0 1.3.7 1.3 1.6 0 1.2-.6 1.9-1.5 1.9-1.3 0-1.4-1.3-1.4-1.8 0-.4 0-.9.1-1.3.7-.4 1.1-.4 1.5-.4"/>
</svg>