<?xml version="1.0" standalone="no"?>
<!DOCTYPE svg PUBLIC "-//W3C//DTD SVG 20010904//EN"
 "http://www.w3.org/TR/2001/REC-SVG-20010904/DTD/svg10.dtd">
<svg version="1.0" xmlns="http://www.w3.org/2000/svg"
 width="16.000000pt" height="16.000000pt" viewBox="0 0 16.000000 16.000000"
 preserveAspectRatio="xMidYMid meet">
<metadata>
Created by potrace 1.11, written by Peter Selinger 2001-2013
</metadata>
<g transform="translate(0.000000,16.000000) scale(0.006612,-0.006612)"
fill="#000000" stroke="none">
<path d="M1050 2323 c-176 -10 -445 -55 -591 -97 l-56 -17 -12 -88 c-36 -279
-38 -620 -7 -851 55 -402 189 -712 397 -920 89 -88 225 -183 324 -226 l65 -27
52 24 c145 67 301 198 414 349 83 109 208 359 261 520 97 293 153 680 153
1051 l0 157 -32 11 c-271 86 -662 132 -968 114z m83 -209 l47 -23 45 23 c44
24 121 43 131 33 3 -3 -12 -43 -34 -89 -59 -122 -87 -257 -94 -450 l-3 -78 82
0 c164 0 351 38 468 96 39 19 74 34 79 34 15 0 -5 -94 -29 -138 l-24 -42 24
-48 c14 -26 28 -67 31 -91 8 -52 13 -52 -111 3 -100 44 -254 75 -407 83 l-117
6 4 -49 c2 -27 7 -114 10 -194 8 -222 43 -433 101 -604 31 -90 31 -96 -6 -96
-34 0 -78 20 -127 57 -17 13 -34 20 -37 14 -17 -27 -102 -71 -138 -71 -21 0
-38 2 -38 4 0 2 15 54 34 114 62 196 91 385 102 655 l7 167 -62 0 c-170 0
-361 -38 -477 -95 -40 -19 -75 -35 -79 -35 -15 0 5 94 29 136 l24 42 -29 58
c-25 49 -39 124 -24 124 3 0 31 -13 63 -29 120 -60 308 -101 470 -101 l82 0 0
68 c0 163 -39 354 -96 465 -18 38 -34 73 -34 79 0 15 79 -1 133 -28z"/>
</g>
</svg>
